<svg width="744" height="571" viewBox="0 0 744 571" fill="none" xmlns="http://www.w3.org/2000/svg">
<g clip-path="url(#clip0)">
<path opacity="0.1" d="M454.666 571C551.304 571 629.644 555.887 629.644 537.244C629.644 518.601 551.304 503.488 454.666 503.488C358.029 503.488 279.688 518.601 279.688 537.244C279.688 555.887 358.029 571 454.666 571Z" fill="#F59442"/>
<path opacity="0.1" d="M343.425 29.8638C317.565 29.726 292.634 23.0644 267.648 17.8976C239.856 12.1615 211.723 8.22201 183.424 6.10371C153.285 3.83723 122.451 3.65123 93.1797 9.66531C63.9088 15.6794 36.1397 28.4171 19.2895 47.8785C-9.31321 80.8491 -1.52876 124.952 13.5166 162.924C31.3657 207.958 58.2943 251.407 98.2499 286.926C126.667 312.167 161.035 332.903 195.17 353.467C214.459 365.082 233.892 376.779 255.792 385.156C276.176 392.92 298.241 397.611 320.155 402.255C343.577 407.215 366.999 412.188 390.924 415.275C467.281 425.14 545.38 415.592 621.619 405.224C648.486 401.573 676.462 397.419 697.824 384.329C714.468 374.127 725.49 359.357 733.343 344.091C743.635 324.113 748.94 300.993 737.739 281.277C721.205 252.192 674.602 239.309 656.312 210.865C632.89 174.402 665.123 129.32 650.071 90.3077C643.809 74.0704 629.824 60.3475 615.213 47.7338C580.389 17.6083 535.694 -8.30804 480.845 2.50766C434.421 11.6631 393.232 30.1325 343.425 29.8638Z" fill="#F59442"/>
<path d="M529.811 130.877C529.402 130.418 528.979 129.958 528.543 129.499C531.87 125.724 535.322 121.845 535.287 116.989C535.253 111.092 530.017 106.559 528.061 100.986C525.402 93.4077 529.094 85.265 530.61 77.3702C531.786 70.9655 531.535 64.3802 529.875 58.0836C528.215 51.7869 525.187 45.9338 521.007 40.9413C519.47 39.1226 517.686 37.3659 515.392 36.6425C511.906 35.5472 508.207 37.0697 504.577 37.5174C492.597 38.9986 481.705 28.6789 469.671 29.602C468.874 29.6306 468.089 29.8057 467.356 30.1187C465.799 30.8627 464.952 32.5092 463.994 33.9214C460.253 39.4326 453.978 42.1882 447.736 44.9782C446.952 45.2096 446.205 45.553 445.518 45.9978C443.644 46.8727 441.798 47.782 440.055 48.8154C428.261 55.7939 429.977 65.5625 436.928 71.5903C435.55 78.3622 428.661 84.3212 429.839 91.2859C430.776 96.742 436.459 100.455 437.555 105.884C438.188 109.039 437.189 112.042 435.798 115.025C422.606 118.077 407.698 123.705 406.534 133.626C404.509 150.889 398.419 198.575 398.419 198.575C398.419 198.575 391.351 236.767 418.155 218.677L417.811 219.697C412.978 234.326 409.678 249.418 407.967 264.73C407.698 267.01 407.147 268.801 406.155 269.387C405.797 269.6 406.506 269.938 408.056 270.358C407.884 270.999 407.691 271.639 407.526 272.287C404.58 283.453 402.698 294.873 401.905 306.394C401.148 316.598 399.74 326.744 397.689 336.768C391.337 368.719 397.689 409.708 397.689 409.708L411.549 474.961L413.919 486.114C415.484 487.844 417.397 489.225 419.533 490.165C420.462 494.163 421.106 498.221 421.462 502.31C421.497 502.765 421.531 503.226 421.559 503.688C420.724 503.791 419.923 504.074 419.209 504.518C418.495 504.961 417.887 505.555 417.425 506.257C412.486 513.202 418.114 518.761 399.08 532.656C394.155 536.245 391.785 539.511 391.179 542.301C390.531 545.284 391.936 547.702 394.451 549.334C394.88 549.611 395.326 549.859 395.787 550.078V550.078C396.021 550.188 396.251 550.294 396.476 550.395C396.72 550.496 396.97 550.59 397.227 550.678H397.268L398.005 550.912H398.061L398.853 551.118H398.922L399.666 551.277H399.762L400.582 551.415H400.671L401.415 551.504H401.56L402.394 551.566H402.504H403.248H403.42H404.261H404.371L405.115 551.525H405.315L406.155 551.442H406.251L407.002 551.332L407.209 551.298L408.043 551.139H408.125L408.883 550.953L409.097 550.898C409.372 550.822 409.641 550.746 409.916 550.657H409.965L410.729 550.388L410.936 550.312C411.205 550.209 411.466 550.106 411.728 549.989C424.431 544.429 450.54 529.845 450.54 529.845V529.377C450.54 529.315 450.54 529.246 450.54 529.177C450.54 529.108 450.54 529.06 450.54 528.998C450.54 528.936 450.54 528.853 450.54 528.771V528.557C450.54 528.461 450.54 528.364 450.54 528.261V528.034C450.54 527.923 450.54 527.813 450.54 527.696C450.54 527.579 450.54 527.303 450.54 527.09C450.464 521.103 449.844 507.132 447.089 507.677C446.145 507.863 445.504 509.185 444.85 510.708L444.526 510.088C441.839 504.9 437.947 496 437.568 487.299C439.738 485.728 441.748 483.946 443.569 481.981C443.569 481.981 442.149 476.008 440.944 469.705C439.897 464.242 439.008 458.537 439.332 456.278C440.021 451.414 430.865 413.904 430.865 413.904C430.865 413.904 431.809 405.637 433.711 394.181C437.403 371.888 444.671 337.443 455.514 327.702C455.769 327.482 456.017 327.261 456.272 327.068C456.272 327.068 464.035 328.446 470.387 372.219L472.226 391.707C472.76 397.106 473.681 402.458 474.982 407.724C476.236 412.912 477.579 421.592 476.752 433.344C475.946 444.835 475.602 458.358 475.457 467.851C475.347 475.009 475.347 479.88 475.347 479.88C476.661 480.99 478.08 481.971 479.584 482.807V489.18C479.568 490.533 479.036 491.829 478.096 492.803V492.803C477.095 493.93 476.367 495.271 475.967 496.723C474.734 498.941 473.694 502.544 473.26 508.338C471.882 527.097 471.145 525.009 471.145 525.009C470.335 527.037 469.798 529.164 469.547 531.333V531.333C469.505 531.74 469.485 532.146 469.471 532.56C469.471 532.622 469.471 532.69 469.471 532.752C469.471 532.941 469.471 533.127 469.471 533.31C469.471 533.402 469.471 533.494 469.471 533.586C469.471 533.678 469.482 533.816 469.505 533.999C469.505 534.123 469.521 534.247 469.553 534.371C469.553 534.461 469.553 534.55 469.595 534.633C469.636 534.716 469.657 534.964 469.698 535.129L469.753 535.343C469.801 535.515 469.85 535.68 469.905 535.846L469.96 535.997C470.015 536.149 470.077 536.296 470.146 536.438L470.208 536.569C470.291 536.734 470.38 536.9 470.483 537.058L470.566 537.189C470.67 537.346 470.783 537.498 470.904 537.644L470.993 537.747C471.127 537.9 471.269 538.045 471.42 538.181L471.469 538.222C471.624 538.358 471.787 538.485 471.958 538.601L472.033 538.656C472.22 538.778 472.413 538.888 472.612 538.987L472.729 539.049C472.954 539.152 473.184 539.241 473.418 539.318L473.535 539.352C473.793 539.437 474.055 539.508 474.321 539.566V539.566C474.596 539.621 474.885 539.669 475.189 539.697H475.313C475.616 539.697 475.933 539.745 476.263 539.745H476.449C476.787 539.745 477.138 539.745 477.496 539.745H477.669C478.054 539.745 478.461 539.676 478.881 539.614C493.699 537.547 500.76 536.169 500.051 527.806C499.623 522.784 498.432 515.489 497.55 510.48C497.103 507.939 496.281 505.478 495.111 503.178C495.148 502.788 495.182 502.386 495.215 501.972C495.469 498.528 495.456 494.395 494.409 491.687L494.732 485.604C498.4 484.672 501.714 482.686 504.267 479.893C504.267 479.893 504.37 475.388 504.68 469.408C505.148 460.177 506.058 447.439 507.794 442.383C510.618 434.047 507.794 404.872 507.794 404.872C507.794 404.872 497.205 354.858 507.105 333.323C515.819 314.33 515.743 295.324 507.36 276.834C507.525 276.704 507.675 276.556 507.807 276.393C507.807 276.393 505.693 275.015 506.43 259.026C506.967 246.832 503.399 234.225 501.676 228.962C504.37 230.118 507.131 231.112 509.943 231.938C526.139 236.767 527.551 218.677 527.551 218.677L531.078 191.583L535.267 151.234C536.41 148.065 537.946 140.143 529.811 130.877ZM458.07 104.113C458.07 104.561 458.021 105.009 457.973 105.45C457.843 106.886 457.54 108.302 457.071 109.666C457.553 107.822 457.846 105.934 457.946 104.031L458.07 104.113ZM500.733 202.729C500.981 203.191 501.222 203.631 501.421 204.107L499.637 203.197C500.298 199.921 501.367 196.741 502.82 193.732C504.573 190.23 506.016 186.581 507.132 182.827C507.082 187.164 507.292 191.5 507.759 195.812C509.199 206.897 500.733 202.729 500.733 202.729Z" fill="url(#paint0_linear)"/>
<path d="M440.888 51.7018C438.636 53.238 436.273 55.0154 435.474 57.6263C434.179 61.8355 437.43 66.0584 437.747 70.4536C438.333 78.4379 429.301 85.0376 430.631 92.9392C431.54 98.354 437.093 102.033 438.16 107.406C439.717 115.26 431.21 122.183 431.878 130.14C432.236 134.39 435.191 138 438.539 140.632C443.246 144.316 448.88 146.629 454.818 147.314C454.425 140.487 449.355 134.266 450.23 127.481C450.829 122.831 454.101 119.021 455.996 114.729C459.323 107.193 458.255 98.4711 456.264 90.4799C454.274 82.4887 451.387 74.587 451.242 66.3684C451.153 61.4084 453.481 54.1267 451.773 49.4215C449.699 43.6968 444.753 49.0633 440.888 51.7018Z" fill="#F78181"/>
<path opacity="0.1" d="M440.888 51.7018C438.636 53.238 436.273 55.0154 435.474 57.6263C434.179 61.8355 437.43 66.0584 437.747 70.4536C438.333 78.4379 429.301 85.0376 430.631 92.9392C431.54 98.354 437.093 102.033 438.16 107.406C439.717 115.26 431.21 122.183 431.878 130.14C432.236 134.39 435.191 138 438.539 140.632C443.246 144.316 448.88 146.629 454.818 147.314C454.425 140.487 449.355 134.266 450.23 127.481C450.829 122.831 454.101 119.021 455.996 114.729C459.323 107.193 458.255 98.4711 456.264 90.4799C454.274 82.4887 451.387 74.587 451.242 66.3684C451.153 61.4084 453.481 54.1267 451.773 49.4215C449.699 43.6968 444.753 49.0633 440.888 51.7018Z" fill="black"/>
<path d="M447.496 512.788L441.296 518.988C441.296 518.988 419.251 530.699 422.007 514.855C422.761 510.145 422.92 505.358 422.482 500.608C421.913 493.979 420.598 487.434 418.562 481.099L439.229 476.965C435.785 487.767 441.454 501.366 444.988 508.29C446.4 511.08 447.496 512.788 447.496 512.788Z" fill="#FFB9B9"/>
<path d="M494.436 500.257C494.281 502.379 494.019 504.492 493.65 506.588C493.65 506.588 476.428 518.299 475.05 505.21C474.155 496.682 476.18 492.81 477.709 491.184C478.626 490.213 479.143 488.931 479.156 487.595V472.143L494.312 476.965L493.623 490.054C494.67 492.776 494.684 496.84 494.436 500.257Z" fill="#FFB9B9"/>
<path opacity="0.05" d="M447.496 512.788L441.296 518.988C441.296 518.988 419.251 530.699 422.007 514.855C422.761 510.145 422.92 505.358 422.482 500.608C427.304 499.919 433.029 505.21 433.029 505.21C441.103 516.605 443.28 512.292 444.988 508.29C446.4 511.08 447.496 512.788 447.496 512.788Z" fill="black"/>
<path d="M433.029 506.588C433.029 506.588 423.384 497.632 418.562 504.521C413.74 511.41 419.251 516.922 400.651 530.7C382.051 544.478 400.651 553.433 413.051 547.922C425.451 542.411 450.94 527.944 450.94 527.944C450.94 527.944 450.94 505.21 447.496 505.899C444.051 506.588 444.74 523.122 433.029 506.588Z" fill="#8189A6"/>
<path opacity="0.05" d="M494.436 500.257C494.281 502.379 494.019 504.492 493.65 506.588C493.65 506.588 476.428 518.299 475.05 505.21C474.155 496.682 476.18 492.81 477.709 491.184C478.308 490.734 479.018 490.456 479.763 490.378C480.508 490.3 481.26 490.427 481.939 490.743C484.695 489.517 487.726 491.563 490.206 494.188C491.917 495.984 493.343 498.03 494.436 500.257Z" fill="black"/>
<path d="M481.94 492.121C481.94 492.121 474.362 487.988 472.984 506.588C471.606 525.188 470.918 523.122 470.918 523.122C470.918 523.122 464.029 539.655 478.495 537.588C492.962 535.522 499.851 534.144 499.162 525.877C498.749 520.896 497.578 513.656 496.716 508.696C495.892 503.79 493.636 499.237 490.234 495.607C487.733 492.934 484.695 490.895 481.94 492.121Z" fill="#8189A6"/>
<path d="M506.74 403.942C506.74 403.942 509.495 432.876 506.74 441.143C505.066 446.158 504.156 458.792 503.702 467.948C503.399 473.872 503.295 478.343 503.295 478.343C490.206 492.121 475.051 478.343 475.051 478.343C475.051 478.343 475.051 473.521 475.161 466.411C475.306 456.994 475.643 443.581 476.429 432.187C477.235 420.531 475.926 411.927 474.699 406.78C473.435 401.557 472.541 396.251 472.027 390.901L470.229 371.571C464.029 328.17 456.451 326.793 456.451 326.793C456.203 326.985 455.962 327.199 455.714 327.419C445.125 337.064 438.03 371.24 434.427 393.347C432.574 404.721 431.671 412.905 431.671 412.905C431.671 412.905 440.627 450.105 439.938 454.928C439.621 457.166 440.489 462.829 441.509 468.244C442.687 474.492 444.071 480.417 444.071 480.417C426.849 499.017 415.138 484.55 415.138 484.55L412.823 473.486L399.294 408.771C399.294 408.771 393.094 368.126 399.294 336.437C401.303 326.492 402.683 316.43 403.427 306.312C404.209 294.89 406.054 283.566 408.938 272.487C409.779 269.208 410.711 265.954 411.735 262.725C411.735 262.725 437.603 258.227 461.962 258.227C480.231 258.227 497.646 260.755 502.668 269.614C503.826 271.653 504.877 273.697 505.823 275.745C514.545 294.49 514.779 313.745 506.113 332.993C496.406 354.342 506.74 403.942 506.74 403.942Z" fill="#4C4C78"/>
<path d="M448.874 153.872C448.874 153.872 412.362 116.672 439.918 119.427C446.166 120.054 450.396 118.938 453.2 116.844C456.396 114.46 457.739 110.809 458.111 107C458.869 99.4217 455.762 91.1549 455.762 91.1549C455.762 91.1549 492.962 61.5323 485.385 98.7328C484.553 102.513 484.068 106.362 483.938 110.231C483.814 118.125 486.411 121.15 490.055 122.39C496.2 124.491 505.335 121.549 509.496 128.355C517.074 140.783 448.874 153.872 448.874 153.872Z" fill="#FFB9B9"/>
<path opacity="0.05" d="M485.384 98.7604C484.552 102.541 484.068 106.389 483.937 110.258C482.946 110.601 481.936 110.889 480.913 111.119C477.029 111.995 473.009 112.08 469.092 111.37C465.174 110.66 461.44 109.169 458.111 106.986C458.869 99.408 455.762 91.1412 455.762 91.1412C455.762 91.1412 492.962 61.5599 485.384 98.7604Z" fill="black"/>
<path d="M503.985 80.8491C503.985 88.7055 500.864 96.2401 495.308 101.795C489.753 107.351 482.219 110.472 474.362 110.472C466.506 110.472 458.972 107.351 453.416 101.795C447.861 96.2401 444.74 88.7055 444.74 80.8491C444.74 80.298 444.74 79.7469 444.788 79.2026C445.228 71.5087 448.648 64.289 454.324 59.0757C459.999 53.8625 467.483 51.0662 475.186 51.2805C482.889 51.4948 490.206 54.7027 495.583 60.2233C500.96 65.7439 503.974 73.1427 503.985 80.8491V80.8491Z" fill="#FFB9B9"/>
<path opacity="0.05" d="M448.874 153.872C448.874 153.872 412.362 116.672 439.918 119.427C446.166 120.054 450.396 118.938 453.2 116.844C447.868 125.689 441.868 141.596 468.851 140.094C493.548 138.716 493.128 128.879 490.055 122.417C496.2 124.518 505.335 121.577 509.496 128.383C517.074 140.783 448.874 153.872 448.874 153.872Z" fill="black"/>
<path opacity="0.1" d="M506.739 278.563C500.471 286.712 420.56 276.028 408.876 272.48C409.716 269.201 410.649 265.947 411.673 262.718C411.673 262.718 437.541 258.22 461.9 258.22C480.169 258.22 497.584 260.748 502.606 269.607C503.764 271.646 504.815 273.69 505.761 275.738C506.202 278.205 506.739 278.563 506.739 278.563Z" fill="black"/>
<path d="M456.451 113.227C456.451 113.227 409.951 117.016 407.884 134.928C405.907 152.054 399.962 199.34 399.962 199.34C399.962 199.34 393.073 237.229 419.251 219.318L418.913 220.323C414.192 234.843 410.972 249.808 409.303 264.985C409.034 267.244 408.504 269.022 407.533 269.607C404.088 271.674 499.844 285.452 506.733 276.496C506.733 276.496 504.666 275.118 505.355 259.274C506.044 243.429 499.844 226.895 499.844 226.895C499.844 226.895 494.333 210.362 501.91 194.517C509.488 178.673 506.733 173.85 506.733 173.85L532.91 153.872C532.91 153.872 538.566 144.179 528.226 132.22C525.122 128.682 521.351 125.79 517.129 123.709C512.907 121.629 508.316 120.401 503.619 120.096L485.57 118.787C485.57 118.787 505.355 140.074 468.155 142.14C430.955 144.207 456.451 113.227 456.451 113.227Z" fill="#F9D048"/>
<path opacity="0.05" d="M425.451 151.117C425.451 151.117 426.829 162.139 424.073 165.584C421.318 169.028 420.629 184.873 424.073 194.517" fill="black"/>
<path opacity="0.1" d="M455.714 327.413C445.125 337.057 438.03 371.233 434.427 393.34C429.412 362.567 450.271 311.63 450.271 311.63L455.714 327.413Z" fill="black"/>
<path opacity="0.1" d="M444.051 480.41C426.829 499.01 415.117 484.543 415.117 484.543L412.803 473.48C419.313 476.862 430.314 479.487 441.488 468.237C442.666 474.485 444.051 480.41 444.051 480.41Z" fill="black"/>
<path opacity="0.1" d="M503.702 467.948C503.399 473.872 503.295 478.343 503.295 478.343C490.206 492.121 475.051 478.343 475.051 478.343C475.051 478.343 475.051 473.521 475.161 466.411C480.844 470.021 491.061 473.996 503.702 467.948Z" fill="black"/>
<path d="M473.157 174.539H431.479C430.052 174.539 428.896 175.696 428.896 177.123V191.245C428.896 192.672 430.052 193.828 431.479 193.828H473.157C474.583 193.828 475.74 192.672 475.74 191.245V177.123C475.74 175.696 474.583 174.539 473.157 174.539Z" fill="#CDD0DB"/>
<path opacity="0.05" d="M473.157 174.539H431.479C430.052 174.539 428.896 175.696 428.896 177.123V191.245C428.896 192.672 430.052 193.828 431.479 193.828H473.157C474.583 193.828 475.74 192.672 475.74 191.245V177.123C475.74 175.696 474.583 174.539 473.157 174.539Z" fill="black"/>
<path d="M473.157 175.228H431.479C430.052 175.228 428.896 176.385 428.896 177.812V191.934C428.896 193.361 430.052 194.517 431.479 194.517H473.157C474.583 194.517 475.74 193.361 475.74 191.934V177.812C475.74 176.385 474.583 175.228 473.157 175.228Z" fill="#CDD0DB"/>
<path d="M465.751 186.595C466.893 186.595 467.818 185.67 467.818 184.528C467.818 183.387 466.893 182.462 465.751 182.462C464.61 182.462 463.685 183.387 463.685 184.528C463.685 185.67 464.61 186.595 465.751 186.595Z" fill="#9DA7C0"/>
<path opacity="0.05" d="M408.959 205.085C409.581 203.234 410.6 201.541 411.944 200.125C413.289 198.709 414.927 197.604 416.743 196.887C419.099 195.909 421.972 194.131 423.426 190.887C426.14 184.873 430.962 178.673 443.362 182.806C455.762 186.939 439.918 189.695 439.918 189.695C439.918 189.695 468.162 185.562 457.14 193.828C446.118 202.095 432.34 206.917 432.34 206.917L425.554 214.103C421.421 218.491 414.243 218.47 410.399 213.799C408.677 211.691 407.767 208.853 408.959 205.085Z" fill="black"/>
<path d="M408.271 203.707C408.892 201.856 409.911 200.163 411.256 198.747C412.601 197.331 414.238 196.226 416.055 195.509C418.411 194.531 421.284 192.754 422.737 189.509C425.451 183.495 430.274 177.295 442.674 181.428C455.074 185.562 439.229 188.317 439.229 188.317C439.229 188.317 467.474 184.184 456.451 192.45C445.429 200.717 431.651 205.54 431.651 205.54L424.866 212.725C420.733 217.113 413.554 217.092 409.71 212.422C407.988 210.314 407.079 207.475 408.271 203.707Z" fill="#FFB9B9"/>
<path opacity="0.05" d="M505.362 217.94L500.54 229.651L494.34 225.111L477.118 212.429L465.407 204.851C448.873 192.45 465.407 190.384 465.407 190.384C459.207 187.628 465.407 184.873 465.407 184.873C487.451 180.05 483.318 197.962 483.318 197.962L497.282 205.202L501.918 207.606L505.362 217.94Z" fill="black"/>
<path d="M506.739 216.562L501.917 228.273L495.717 223.733L478.495 211.051L466.784 203.473C450.25 191.073 466.784 189.006 466.784 189.006C460.584 186.251 466.784 183.495 466.784 183.495C488.828 178.673 484.695 196.584 484.695 196.584L498.659 203.824L503.295 206.229L506.739 216.562Z" fill="#FFB9B9"/>
<path opacity="0.05" d="M506.74 216.562L501.918 228.273L495.718 223.733C501.305 223.933 507.904 221.233 498.632 203.824L503.268 206.228L506.74 216.562Z" fill="black"/>
<path d="M532.228 146.983L533.558 152.405L529.473 192.451L526.028 219.318C526.028 219.318 524.651 237.229 508.806 232.407C492.962 227.584 491.584 222.762 491.584 222.762C491.584 222.762 514.317 230.34 499.851 203.473C499.851 203.473 508.117 207.606 506.74 196.584C505.362 185.562 506.74 166.272 506.74 166.272L532.228 146.983Z" fill="#F9D048"/>
<path opacity="0.05" d="M503.985 80.8491C503.985 87.5675 501.702 94.0867 497.51 99.3367C493.318 104.587 487.466 108.256 480.914 109.741C479.922 106.876 479.219 104.024 479.942 101.123C481.32 95.4951 487.837 91.3892 487.114 85.6369C487.043 84.9862 486.805 84.3646 486.425 83.832C484.971 81.9169 482.009 82.8676 479.653 83.3429C473.563 84.5554 466.895 80.4426 465.241 74.4561C462.596 77.0584 459.282 78.8789 455.667 79.7165C452.051 80.5541 448.275 80.3763 444.754 79.2026C445.193 71.5087 448.614 64.289 454.289 59.0757C459.965 53.8625 467.448 51.0662 475.151 51.2805C482.855 51.4948 490.171 54.7027 495.548 60.2233C500.925 65.7439 503.939 73.1427 503.95 80.8491H503.985Z" fill="black"/>
<path d="M465.965 73.0783C467.611 79.0648 474.287 83.1776 480.369 81.9582C482.725 81.4898 485.688 80.5391 487.141 82.4542C487.512 82.9862 487.738 83.6061 487.796 84.2522C488.526 90.0114 482.03 94.1104 480.631 99.7456C479.191 105.546 483.387 111.147 484.317 117.051C484.806 120.282 484.317 123.575 484.317 126.84C484.317 130.105 485.088 133.619 487.513 135.796C489.938 137.973 494.402 138.014 496.035 135.176C503.785 139.275 500.692 151.971 506.575 158.467C509.819 162.05 515.158 162.911 519.974 162.456C521.101 162.438 522.198 162.083 523.122 161.436C523.918 160.651 524.456 159.642 524.665 158.543C525.88 153.944 525.671 149.084 524.066 144.607C523.294 142.464 522.185 140.301 522.474 138.048C522.695 136.285 523.749 134.748 524.865 133.364C528.564 128.776 533.614 124.339 533.579 118.442C533.545 112.545 528.433 108.109 526.525 102.598C523.928 95.0679 527.531 87.001 529.012 79.1751C530.17 72.8279 529.932 66.3046 528.314 60.0588C526.696 53.8129 523.737 47.9945 519.643 43.0079C518.141 41.203 516.398 39.4601 514.132 38.7436C510.736 37.6552 507.119 39.1708 503.571 39.6117C491.86 41.079 481.244 30.842 469.492 31.7582C468.713 31.7882 467.947 31.9634 467.232 32.2749C465.71 33.012 464.89 34.6447 463.946 36.0501C458.759 43.8002 448.563 46.0115 440.572 50.82C417.267 64.8529 448.116 90.2594 465.965 73.0783Z" fill="#F78181"/>
<path opacity="0.3" d="M413.051 545.166C404.998 548.742 394.341 546.22 392.942 540.248C391.255 548.142 403.854 552.014 413.051 547.922C425.451 542.411 450.94 527.944 450.94 527.944C450.94 527.944 450.94 526.876 450.906 525.188C450.162 525.629 425.265 539.703 413.051 545.166Z" fill="white"/>
<path opacity="0.3" d="M499.128 525.478C498.335 531.678 491.46 532.98 478.495 534.833C471.903 535.777 469.753 532.849 469.354 529.391C468.92 533.82 470.181 538.773 478.495 537.588C492.962 535.522 499.851 534.144 499.162 525.877C499.148 525.746 499.134 525.608 499.128 525.478Z" fill="white"/>
<path d="M584.357 537.905C584.357 537.905 574.382 487.347 594.917 452.73C603.625 438.258 607.403 421.351 605.685 404.549C604.799 396.578 603.185 388.705 600.862 381.03" stroke="#535461" stroke-width="2" stroke-miterlimit="10"/>
<path d="M613.697 359.122C613.146 365.15 600.608 381.636 600.608 381.636C600.608 381.636 591.294 363.146 591.852 357.111C591.956 355.655 592.349 354.235 593.008 352.933C593.667 351.632 594.58 350.475 595.692 349.53C596.804 348.585 598.094 347.872 599.485 347.432C600.876 346.992 602.341 346.834 603.794 346.968C605.247 347.101 606.659 347.523 607.947 348.209C609.235 348.895 610.373 349.831 611.295 350.962C612.216 352.094 612.903 353.397 613.314 354.798C613.725 356.198 613.853 357.666 613.69 359.116L613.697 359.122Z" fill="#F59442"/>
<path d="M628.68 394.187C624.94 398.948 605.465 405.981 605.465 405.981C605.465 405.981 607.697 385.397 611.437 380.637C612.302 379.435 613.4 378.421 614.667 377.656C615.933 376.89 617.342 376.389 618.807 376.182C620.272 375.975 621.764 376.067 623.193 376.452C624.622 376.837 625.959 377.507 627.122 378.422C628.285 379.337 629.251 380.478 629.961 381.777C630.672 383.075 631.112 384.503 631.256 385.976C631.399 387.449 631.243 388.936 630.797 390.347C630.351 391.758 629.624 393.065 628.66 394.187H628.68Z" fill="#F59442"/>
<path d="M622.645 451.201C617.01 453.419 596.653 449.658 596.653 449.658C596.653 449.658 608.971 433.014 614.606 430.795C615.951 430.241 617.393 429.959 618.847 429.968C620.302 429.976 621.741 430.273 623.079 430.843C624.418 431.412 625.63 432.242 626.645 433.285C627.66 434.327 628.457 435.561 628.99 436.914C629.523 438.268 629.782 439.714 629.751 441.169C629.72 442.623 629.4 444.057 628.809 445.386C628.219 446.716 627.37 447.915 626.312 448.913C625.253 449.911 624.007 450.689 622.645 451.201V451.201Z" fill="#F59442"/>
<path d="M608.365 493.306C603.185 496.447 582.483 496.179 582.483 496.179C582.483 496.179 591.818 477.703 596.991 474.554C598.223 473.779 599.597 473.257 601.033 473.018C602.469 472.779 603.937 472.828 605.354 473.163C606.77 473.497 608.106 474.11 609.283 474.966C610.46 475.822 611.455 476.904 612.21 478.149C612.965 479.393 613.465 480.775 613.68 482.215C613.895 483.654 613.822 485.122 613.464 486.533C613.106 487.944 612.471 489.269 611.595 490.432C610.72 491.595 609.622 492.572 608.365 493.306V493.306Z" fill="#F59442"/>
<path d="M582.428 405.038C586.368 409.639 606.118 415.84 606.118 415.84C606.118 415.84 603.018 395.365 599.085 390.771C597.179 388.609 594.5 387.285 591.625 387.083C588.751 386.882 585.913 387.82 583.725 389.694C581.536 391.568 580.173 394.229 579.931 397.1C579.688 399.971 580.585 402.822 582.428 405.038V405.038Z" fill="#F59442"/>
<path d="M566.35 454.5C571.482 457.711 592.19 457.718 592.19 457.718C592.19 457.718 583.11 439.124 577.978 435.9C576.757 435.114 575.391 434.578 573.961 434.323C572.53 434.069 571.064 434.101 569.646 434.418C568.228 434.736 566.887 435.331 565.702 436.171C564.516 437.011 563.509 438.078 562.739 439.31C561.97 440.542 561.452 441.915 561.217 443.348C560.983 444.782 561.035 446.248 561.371 447.661C561.708 449.075 562.322 450.407 563.178 451.581C564.034 452.755 565.114 453.748 566.356 454.5H566.35Z" fill="#F59442"/>
<path d="M557.311 504.714C561.83 508.744 582.235 512.258 582.235 512.258C582.235 512.258 576.428 492.383 571.902 488.353C570.837 487.338 569.579 486.547 568.203 486.028C566.827 485.509 565.36 485.272 563.89 485.331C562.42 485.391 560.977 485.746 559.647 486.374C558.317 487.003 557.127 487.892 556.148 488.99C555.169 490.088 554.421 491.372 553.948 492.765C553.475 494.158 553.288 495.632 553.396 497.099C553.505 498.566 553.907 499.996 554.58 501.304C555.252 502.613 556.181 503.772 557.311 504.714V504.714Z" fill="#F59442"/>
<path opacity="0.2" d="M307.934 161.106C309.836 161.106 311.378 159.564 311.378 157.661C311.378 155.759 309.836 154.217 307.934 154.217C306.031 154.217 304.489 155.759 304.489 157.661C304.489 159.564 306.031 161.106 307.934 161.106Z" fill="white"/>
<path opacity="0.2" d="M319.645 161.106C321.547 161.106 323.089 159.564 323.089 157.661C323.089 155.759 321.547 154.217 319.645 154.217C317.742 154.217 316.2 155.759 316.2 157.661C316.2 159.564 317.742 161.106 319.645 161.106Z" fill="white"/>
<path opacity="0.2" d="M331.356 161.106C333.258 161.106 334.8 159.564 334.8 157.661C334.8 155.759 333.258 154.217 331.356 154.217C329.453 154.217 327.911 155.759 327.911 157.661C327.911 159.564 329.453 161.106 331.356 161.106Z" fill="white"/>
</g>
<defs>
<linearGradient id="paint0_linear" x1="463.622" y1="551.711" x2="463.622" y2="29.5262" gradientUnits="userSpaceOnUse">
<stop stop-color="#808080" stop-opacity="0.25"/>
<stop offset="0.54" stop-color="#808080" stop-opacity="0.12"/>
<stop offset="1" stop-color="#808080" stop-opacity="0.1"/>
</linearGradient>
<clipPath id="clip0">
<rect width="744" height="571" fill="white"/>
</clipPath>
</defs>
</svg>
