<svg width="771" height="900" viewBox="0 0 771 900" fill="none" xmlns="http://www.w3.org/2000/svg">
<g clip-path="url(#clip0)">
<rect width="1440" height="900" transform="translate(-669)" fill="white"/>
<rect x="51" width="720" height="900" fill="white"/>
<g clip-path="url(#clip1)">
<g opacity="0.1">
<path opacity="0.1" d="M-129.932 175.578C-115.015 201.537 -123.278 235.233 -139.483 260.403C-155.687 285.572 -178.737 305.55 -196.697 329.564C-232.397 377.475 -241.625 453.13 -196.609 492.501C-186.912 500.983 -174.92 507.696 -169.011 519.133C-160.85 534.913 -166.89 553.925 -173.048 570.642L-173.559 572.017C-196.828 635.094 -162.547 705.001 -98.298 724.789C-62.7441 735.743 -30.6563 753.498 -6.90494 782.206C13.8483 807.303 25.8409 838.264 39.5302 867.806C64.276 921.173 96.2175 972.199 140.356 1011.06C184.495 1049.92 242.09 1075.67 300.883 1073.55C435.172 1068.71 534.053 927.301 668.21 919.856C677.878 919.315 688.174 919.681 696.262 925.004C707.669 932.522 711.165 947.278 715.962 960.104C741.366 1028.01 817.856 1059.31 886.346 1083.09L1015.05 1127.81C1084.96 1152.09 1158.37 1176.73 1231.5 1165.48C1304.63 1154.24 1376.03 1094.19 1372.85 1020.24C1370.25 959.505 1319.91 906.05 1326.51 845.606C1331.07 803.837 1362.35 768.751 1367.59 727.056C1373.04 683.663 1349.32 641.997 1322.02 607.833C1243.45 509.495 1131.48 444.677 1022.2 382.155C945.227 338.105 867.859 293.879 784.993 262.231C580.708 184.411 356.181 187.761 138.558 166.525C101.132 162.869 62.0091 158.569 27.713 142.028C1.38756 129.334 -19.1901 99.9817 -48.075 93.766C-70.0859 89.0276 -102.642 98.8117 -121.859 109.502C-156.887 129.129 -147.234 145.465 -129.932 175.578Z" fill="#F59442"/>
</g>
<path d="M1217.78 1H42.3675C36.9861 1.02299 31.6619 2.10642 26.6995 4.18836C21.7371 6.27031 17.2337 9.30992 13.4468 13.1334C9.65985 16.9569 6.66372 21.4893 4.62966 26.4715C2.5956 31.4537 1.56351 36.7879 1.59239 42.1692V868.772C1.56351 874.153 2.5956 879.487 4.62966 884.469C6.66372 889.451 9.65985 893.984 13.4468 897.807C17.2337 901.631 21.7371 904.671 26.6995 906.752C31.6619 908.834 36.9861 909.918 42.3675 909.941H1217.78C1223.16 909.918 1228.49 908.834 1233.45 906.752C1238.41 904.671 1242.92 901.631 1246.7 897.807C1250.49 893.984 1253.49 889.451 1255.52 884.469C1257.55 879.487 1258.59 874.153 1258.56 868.772V42.1692C1258.59 36.7879 1257.55 31.4537 1255.52 26.4715C1253.49 21.4893 1250.49 16.9569 1246.7 13.1334C1242.92 9.30992 1238.41 6.27031 1233.45 4.18836C1228.49 2.10642 1223.16 1.02299 1217.78 1V1Z" fill="url(#paint0_linear)"/>
<path d="M1253.25 88.5742V858.914C1253.25 869.635 1248.99 879.917 1241.41 887.498C1233.83 895.079 1223.55 899.338 1212.82 899.338H47.7935C37.0724 899.338 26.7903 895.079 19.2093 887.498C11.6283 879.917 7.36938 869.635 7.36938 858.914V88.5742H1253.25Z" fill="#F6F7F9"/>
<path d="M311.706 485.627V899.323H47.7935C25.4754 899.323 7.36938 880.866 7.36938 858.11V485.627H311.706Z" fill="#DDE1EC"/>
<path d="M909.293 182.891H402.061V197.15H909.293V182.891Z" fill="#DDE1EC"/>
<path d="M707.976 284.329H402.061V298.589H707.976V284.329Z" fill="#DDE1EC"/>
<g opacity="0.1">
<path opacity="0.1" d="M203.918 640.169H100.883V654.428H203.918V640.169Z" fill="#F59442"/>
</g>
<path d="M707.976 328.716H402.061V342.975H707.976V328.716Z" fill="#DDE1EC"/>
<path d="M707.976 373.088H402.061V387.347H707.976V373.088Z" fill="#DDE1EC"/>
<path d="M707.976 417.475H402.061V431.734H707.976V417.475Z" fill="#DDE1EC"/>
<path d="M707.976 461.862H402.061V476.121H707.976V461.862Z" fill="#DDE1EC"/>
<path d="M707.976 506.234H402.061V520.493H707.976V506.234Z" fill="#DDE1EC"/>
<path d="M707.976 550.62H402.061V564.88H707.976V550.62Z" fill="#DDE1EC"/>
<path d="M707.976 595.007H402.061V609.266H707.976V595.007Z" fill="#DDE1EC"/>
<path d="M311.706 87.7845H7.36938V493.554H311.706V87.7845Z" fill="#F59442"/>
<path d="M1253.25 47.3611C1253.24 36.6427 1248.98 26.3646 1241.4 18.787C1233.82 11.2093 1223.54 6.95239 1212.82 6.95239H47.7935C37.0724 6.95239 26.7903 11.2113 19.2093 18.7921C11.6283 26.373 7.36938 36.6548 7.36938 47.3758V93.342H1253.25V47.3611Z" fill="#E8EAF1"/>
<path d="M56.51 65.5985C65.2658 65.5985 72.3637 58.5007 72.3637 49.7451C72.3637 40.9894 65.2658 33.8916 56.51 33.8916C47.7542 33.8916 40.6562 40.9894 40.6562 49.7451C40.6562 58.5007 47.7542 65.5985 56.51 65.5985Z" fill="#FF5252"/>
<path d="M108.81 65.5985C117.566 65.5985 124.664 58.5007 124.664 49.7451C124.664 40.9894 117.566 33.8916 108.81 33.8916C100.054 33.8916 92.9561 40.9894 92.9561 49.7451C92.9561 58.5007 100.054 65.5985 108.81 65.5985Z" fill="#FFFF00"/>
<path d="M161.124 65.5985C169.88 65.5985 176.978 58.5007 176.978 49.7451C176.978 40.9894 169.88 33.8916 161.124 33.8916C152.368 33.8916 145.271 40.9894 145.271 49.7451C145.271 58.5007 152.368 65.5985 161.124 65.5985Z" fill="#69F0AE"/>
<path d="M248.32 290.676C248.348 311.005 241.364 330.721 228.547 346.5C228.064 347.1 227.582 347.685 227.084 348.27C226.987 348.369 226.899 348.477 226.821 348.591C222.28 353.847 217.141 358.554 211.508 362.617L210.777 363.158C209.768 363.874 208.744 364.62 207.706 365.235L206.989 365.688L205.454 366.639C205.227 366.782 204.992 366.914 204.752 367.033C204.561 367.17 204.361 367.292 204.152 367.399C201.9 368.715 199.574 369.929 197.19 371.041C196.927 371.187 196.635 371.304 196.357 371.435C196.079 371.567 195.757 371.728 195.435 371.845C195.114 371.962 194.485 372.269 193.973 372.459C188.865 374.621 183.561 376.287 178.134 377.432C172.961 378.539 167.699 379.18 162.412 379.348H161.607H159.516C152.538 379.372 145.582 378.571 138.792 376.964L137.519 376.657C134.536 375.877 131.611 374.97 128.744 373.936C127.004 373.293 125.278 372.591 123.596 371.845C123.172 371.655 122.762 371.479 122.338 371.275L121.066 370.704L119.954 370.134L118.784 369.534L117.483 368.847L116.02 368.013L115.786 367.882C109.552 364.344 103.767 360.067 98.5578 355.143C98.119 354.719 97.6656 354.31 97.2415 353.856C96.8174 353.403 96.3201 352.95 95.8813 352.482C85.7502 342.049 78.3378 329.286 74.296 315.316C70.2542 301.347 69.7068 286.598 72.7021 272.367C75.6973 258.137 82.1434 244.86 91.4734 233.705C100.803 222.549 112.732 213.857 126.209 208.393C139.686 202.929 154.299 200.86 168.764 202.368C183.228 203.876 197.1 208.915 209.161 217.041C221.221 225.168 231.099 236.133 237.928 248.973C244.756 261.813 248.325 276.134 248.32 290.676V290.676Z" fill="white"/>
<path d="M209.475 326.23V326.347L209.578 326.449C209.549 326.361 209.505 326.303 209.475 326.23ZM120.028 370.105C119.881 368.057 119.735 366.214 119.603 364.635C119.501 363.523 119.399 362.529 119.311 361.71C119.302 361.671 119.302 361.631 119.311 361.593C119.311 361.388 119.311 361.198 119.311 361.008C117.901 363.16 116.743 365.466 115.859 367.882L116.093 368.013L117.556 368.847L118.858 369.534L120.028 370.134C120.028 370.787 120.076 371.47 120.174 372.181C120.101 371.479 120.071 370.807 120.028 370.148V370.105ZM139.494 286.494L139.567 286.625C139.572 286.659 139.572 286.694 139.567 286.728C139.554 286.661 139.529 286.596 139.494 286.538V286.494Z" fill="url(#paint1_linear)"/>
<path d="M164.956 271.562C164.956 271.562 159.676 295.283 174.185 307.817C188.693 320.35 139.918 330.164 131.318 319.678C122.718 309.192 137.285 303.839 137.285 303.839C137.285 303.839 144.598 297.901 137.285 280.117L164.956 271.562Z" fill="#E0A17E"/>
<path d="M178.119 377.461C172.946 378.568 167.684 379.21 162.397 379.377H161.593H159.501C152.527 379.39 145.576 378.58 138.792 376.964L137.519 376.657C134.536 375.877 131.611 374.97 128.744 373.936L127.282 351.999L133.629 321.623L137.359 303.722L138.412 298.72L139.479 300.183L139.713 300.505L140.006 300.885L151.706 316.46L163.684 303.561L164.298 302.888L167.589 299.335L168.832 298.004L169.417 302.523L171.523 318.771L175.428 348.738L178.119 377.461Z" fill="#F0F1F5"/>
<path opacity="0.1" d="M210.762 363.158C209.753 363.874 208.73 364.62 207.691 365.234L206.975 365.688L205.439 366.638C205.212 366.782 204.978 366.914 204.737 367.033C204.546 367.17 204.346 367.292 204.137 367.399C200.915 364.651 198.495 361.083 197.132 357.074C196.96 356.565 196.813 356.047 196.693 355.523C196.686 355.441 196.686 355.358 196.693 355.275L195.859 357.469L193.3 363.801C193.3 363.801 194.06 366.902 195.421 371.816C194.943 372.04 194.455 372.245 193.958 372.43C188.85 374.592 183.546 376.257 178.119 377.402C172.946 378.51 167.684 379.151 162.397 379.318H161.592C160.853 372.52 160.594 365.678 160.817 358.843L162.748 322.032L163.728 303.459L164.269 293.221C164.269 293.221 164.459 293.426 164.825 293.762C165.19 294.099 165.439 294.347 165.878 294.742C172.405 300.446 180.628 303.843 189.278 304.409C191.667 304.478 194.008 305.097 196.118 306.218C198.229 307.339 200.052 308.933 201.446 310.873C204.089 314.632 205.79 318.971 206.404 323.524L206.843 327.546L206.96 328.687L207.121 330.149L210.762 363.158Z" fill="black"/>
<path d="M211.494 362.631L210.762 363.172C209.753 363.889 208.729 364.635 207.691 365.249L206.974 365.702L205.439 366.653C202 363.888 199.38 360.237 197.863 356.094V356.094C197.792 355.923 197.734 355.747 197.687 355.567C197.527 355.055 197.38 354.514 197.263 353.988L196.664 355.553L195.845 357.673L193.973 362.558C193.973 362.558 194.835 366.068 196.357 371.479C196.049 371.626 195.757 371.772 195.435 371.889C195.113 372.006 194.484 372.313 193.973 372.503C188.865 374.665 183.561 376.33 178.133 377.476C172.961 378.583 167.699 379.224 162.411 379.391C161.558 372.151 161.25 364.857 161.49 357.571L163.362 321.901L164.356 302.888L164.839 293.923L164.927 292.066C165.005 292.154 165.088 292.237 165.176 292.314C171.913 298.782 180.719 302.662 190.038 303.268C192.394 303.336 194.703 303.939 196.791 305.031C198.878 306.123 200.691 307.676 202.09 309.572C204.806 313.363 206.554 317.762 207.179 322.383L207.954 329.593V329.696L208.115 331.158L211.494 362.631Z" fill="#293158"/>
<path opacity="0.1" d="M140.386 296.526V297.418L140.152 300.811L139.333 312.424C139.333 312.424 138.85 315.773 138.499 323.319C137.987 333.264 137.68 350.492 138.865 376.993L137.592 376.686C134.609 375.906 131.684 374.999 128.817 373.965C127.077 373.322 125.351 372.62 123.669 371.874C123.245 371.684 122.836 371.508 122.411 371.304C121.987 365.454 121.475 361.871 121.475 361.871C121.475 361.871 121.081 362.368 120.481 363.333C120.232 363.728 119.925 364.211 119.603 364.796L119.53 364.927C119.248 365.415 118.945 365.97 118.623 366.594C118.258 367.326 117.892 368.057 117.541 368.978L116.079 368.145L115.845 368.013C109.61 364.475 103.826 360.198 98.6162 355.275C100.971 346.982 103.004 338.646 103.735 337.579C106.462 333.39 108.557 328.821 109.951 324.021C110.925 320.761 112.611 317.758 114.887 315.229C117.164 312.699 119.973 310.707 123.113 309.396C129.675 306.321 135.542 301.942 140.357 296.526H140.386Z" fill="black"/>
<path d="M140.4 296.117C134.739 300.91 128.433 304.883 121.665 307.919C118.525 309.23 115.715 311.222 113.439 313.751C111.163 316.281 109.477 319.284 108.503 322.544C107.108 327.344 105.014 331.913 102.287 336.102C101.57 337.169 99.5226 345.52 97.168 353.827C97.5921 354.266 98.0455 354.69 98.4842 355.114C103.694 360.038 109.478 364.315 115.713 367.852L115.947 367.984C116.8 365.81 117.878 363.732 119.164 361.783L119.237 361.666C119.749 360.905 120.071 360.496 120.071 360.496C120.071 360.496 120.203 361.461 120.393 363.202C120.583 364.942 120.832 367.589 121.066 370.66L122.338 371.231C122.747 371.435 123.157 371.611 123.596 371.801C125.278 372.547 127.003 373.264 128.744 373.892C131.581 374.936 134.506 375.842 137.519 376.613C136.32 350.376 136.583 333.089 137.066 322.895C137.446 314.676 137.958 311.034 137.958 311.034L139.815 300.358L140.342 297.345L140.59 295.883L140.4 296.117Z" fill="#293158"/>
<path opacity="0.1" d="M149.804 294.64C146.516 294.644 143.27 293.898 140.313 292.461C139.802 288.671 138.783 284.967 137.285 281.448L164.956 272.893C163.948 278.195 163.755 283.62 164.386 288.98C160.399 292.616 155.2 294.634 149.804 294.64V294.64Z" fill="black"/>
<path d="M149.804 293.324C161.815 293.324 171.552 283.587 171.552 271.576C171.552 259.566 161.815 249.829 149.804 249.829C137.793 249.829 128.057 259.566 128.057 271.576C128.057 283.587 137.793 293.324 149.804 293.324Z" fill="#E0A17E"/>
<g opacity="0.1">
<path opacity="0.1" d="M194.002 372.488C192.291 366.478 191.34 362.529 191.34 362.529L194.631 353.958C194.888 355.163 195.266 356.339 195.757 357.469L195.83 357.659L193.958 362.543C193.958 362.543 194.821 366.053 196.342 371.465C196.035 371.611 195.742 371.757 195.42 371.874C195.099 371.991 194.47 372.298 194.002 372.488Z" fill="black"/>
</g>
<path d="M219.669 331.539C219.669 331.539 217.695 312.424 219.669 303.195C221.643 293.967 196.605 304.512 201.87 317.031C204.687 323.971 208.221 330.598 212.415 336.804L219.669 331.539Z" fill="#E0A17E"/>
<path opacity="0.1" d="M226.806 348.591C222.265 353.846 217.126 358.553 211.494 362.617L210.762 363.158C209.753 363.874 208.73 364.62 207.691 365.234C205.334 362.438 203.229 359.438 201.402 356.269L201.212 355.933L206.492 328.248L207.048 328.818C207.282 329.038 207.589 329.33 207.954 329.623H208.028C210.762 331.963 216.539 335.473 219.318 327.312C219.788 325.883 220.125 324.415 220.327 322.924L220.868 324.943L221.19 326.127L227.04 348.196L226.806 348.591Z" fill="black"/>
<path d="M226.806 348.591C222.265 353.847 217.126 358.554 211.494 362.617L210.762 363.158C209.753 363.874 208.73 364.62 207.691 365.235L206.974 365.688C204.831 363.029 202.904 360.202 201.212 357.235L201.402 356.255L206.492 329.55C206.492 329.55 206.755 329.857 207.209 330.281L208.115 331.085C208.496 331.407 208.934 331.758 209.417 332.08C212.444 334.156 217.051 335.721 219.391 328.424C219.822 327.069 220.135 325.679 220.327 324.27L221 326.756L226.806 348.591Z" fill="#293158"/>
<path opacity="0.02" d="M226.806 348.591C222.265 353.847 217.126 358.554 211.494 362.617L210.762 363.158C209.753 363.874 208.73 364.62 207.691 365.235L206.974 365.688C204.831 363.029 202.904 360.202 201.212 357.235L201.402 356.255L206.492 329.55C206.492 329.55 206.755 329.857 207.209 330.281L208.115 331.085C208.496 331.407 208.934 331.758 209.417 332.08C212.444 334.156 217.051 335.721 219.391 328.424C219.822 327.069 220.135 325.679 220.327 324.27L221 326.756L226.806 348.591Z" fill="black"/>
<path opacity="0.1" d="M119.311 361.724L119.238 361.841C119.238 361.768 119.238 361.681 119.238 361.622C120.159 358.419 120.993 356.255 121.739 355.611C121.739 355.611 122.719 362.119 123.596 371.874C123.172 371.684 122.762 371.509 122.338 371.304L121.066 370.733C120.847 367.589 120.613 365.03 120.393 363.275C120.174 361.52 120.071 360.569 120.071 360.569C120.071 360.569 119.823 360.964 119.311 361.724Z" fill="black"/>
<path opacity="0.1" d="M150.068 265.58C151.205 264.956 152.514 264.72 153.797 264.907C154.352 265.141 154.85 265.49 155.26 265.931C156.971 267.554 158.667 269.441 160.978 269.938C162.405 270.155 163.861 270.091 165.263 269.748C167.724 269.464 170.112 268.735 172.313 267.598C177.212 264.673 178.777 258.341 179.084 252.652C179.187 250.736 178.792 248.264 176.905 247.855C174.507 247.343 172.751 250.984 170.324 250.589C169.586 250.41 168.921 250.007 168.422 249.434C166.77 247.781 165.644 245.661 164.035 243.994C161.463 241.59 158.131 240.162 154.616 239.957C151.13 239.768 147.636 240.098 144.247 240.937C142.378 241.245 140.574 241.863 138.909 242.765C138.084 243.216 137.368 243.843 136.812 244.601C136.256 245.359 135.873 246.23 135.691 247.153C135.53 248.425 135.867 249.741 135.618 250.999C135.372 251.849 134.955 252.639 134.391 253.32C133.827 254.002 133.13 254.561 132.342 254.962C130.879 255.869 129.154 256.425 127.72 257.536C125.442 259.306 123.863 261.823 123.26 264.644C122.675 267.45 122.595 270.337 123.026 273.17C123.626 278.093 124.998 282.89 127.091 287.386C127.783 288.955 128.673 290.429 129.739 291.773C131.303 293.48 133.1 294.957 135.077 296.161C135.435 296.486 135.861 296.726 136.324 296.866C136.787 297.005 137.275 297.039 137.753 296.965C138.027 296.867 138.28 296.718 138.499 296.526C140.371 294.962 140.547 292.139 139.962 289.755C139.377 287.371 138.382 285.104 138.265 282.677C138.19 281.995 138.323 281.307 138.645 280.702C139.035 280.213 139.477 279.767 139.962 279.371C140.595 278.643 141.091 277.805 141.424 276.9C142.543 274.662 143.308 272.264 143.691 269.792C143.903 267.756 143.457 265.706 142.419 263.942C143.423 264.886 144.667 265.538 146.015 265.827C147.363 266.116 148.765 266.03 150.068 265.58V265.58Z" fill="black"/>
<path d="M150.068 264.82C151.205 264.196 152.514 263.96 153.797 264.147C154.352 264.381 154.85 264.73 155.26 265.171C156.971 266.794 158.667 268.681 160.978 269.178C162.405 269.395 163.861 269.33 165.263 268.988C167.724 268.703 170.112 267.975 172.313 266.838C177.212 263.913 178.777 257.58 179.084 251.891C179.187 249.975 178.792 247.504 176.905 247.094C174.507 246.582 172.751 250.224 170.324 249.829C169.586 249.65 168.921 249.246 168.422 248.674C166.77 247.021 165.644 244.9 164.035 243.233C161.463 240.829 158.131 239.401 154.616 239.197C151.13 239.007 147.636 239.338 144.247 240.176C142.378 240.485 140.574 241.103 138.909 242.005C138.084 242.456 137.368 243.083 136.812 243.841C136.256 244.599 135.873 245.47 135.691 246.392C135.53 247.664 135.867 248.981 135.618 250.238C135.372 251.088 134.955 251.878 134.391 252.56C133.827 253.242 133.13 253.8 132.342 254.202C130.879 255.109 129.154 255.664 127.72 256.776C125.442 258.546 123.863 261.063 123.26 263.884C122.675 266.689 122.595 269.576 123.026 272.41C123.626 277.332 124.998 282.13 127.091 286.625C127.783 288.195 128.673 289.669 129.739 291.013C131.303 292.719 133.1 294.196 135.077 295.4C135.435 295.725 135.861 295.966 136.324 296.105C136.787 296.244 137.275 296.278 137.753 296.205C138.027 296.106 138.28 295.958 138.499 295.766C140.371 294.201 140.547 291.378 139.962 288.995C139.377 286.611 138.382 284.344 138.265 281.916C138.19 281.235 138.323 280.547 138.645 279.942C139.035 279.452 139.477 279.006 139.962 278.611C140.595 277.883 141.091 277.045 141.424 276.139C142.543 273.902 143.308 271.504 143.691 269.032C143.903 266.996 143.457 264.946 142.419 263.182C143.423 264.126 144.667 264.778 146.015 265.067C147.363 265.355 148.765 265.27 150.068 264.82V264.82Z" fill="#463E3B"/>
<path d="M30.4039 829.284C50.7506 829.284 67.2449 823.227 67.2449 815.756C67.2449 808.285 50.7506 802.228 30.4039 802.228C10.0572 802.228 -6.43701 808.285 -6.43701 815.756C-6.43701 823.227 10.0572 829.284 30.4039 829.284Z" fill="#CD9494"/>
<path opacity="0.05" d="M30.404 821.153C40.7833 821.153 49.1974 818.062 49.1974 814.25C49.1974 810.437 40.7833 807.347 30.404 807.347C20.0247 807.347 11.6106 810.437 11.6106 814.25C11.6106 818.062 20.0247 821.153 30.404 821.153Z" fill="black"/>
<path d="M-6.45166 812.787C-6.45166 812.787 34.148 835.339 67.2302 815.8C67.2302 815.8 62.7257 894 40.1589 901.517H10.1041C10.1041 901.517 -15.4608 848.823 -6.45166 812.787Z" fill="#FF7361"/>
<path d="M62.2139 669.463C72.5539 707.239 28.4734 814.849 28.4734 814.849C28.4734 814.849 -64.2359 744.65 -74.5759 706.888C-79.5389 688.749 -77.0928 669.381 -67.7756 653.046C-58.4584 636.71 -43.0335 624.745 -24.894 619.782C-6.75456 614.819 12.6135 617.265 28.9494 626.582C45.2853 635.899 57.2509 651.324 62.2139 669.463V669.463Z" fill="#F59442"/>
<path opacity="0.1" d="M62.2139 669.463C72.5539 707.239 28.4734 814.849 28.4734 814.849C28.4734 814.849 -64.2359 744.65 -74.5759 706.888C-79.5389 688.749 -77.0928 669.381 -67.7756 653.046C-58.4584 636.71 -43.0335 624.745 -24.894 619.782C-6.75456 614.819 12.6135 617.265 28.9494 626.582C45.2853 635.899 57.2509 651.324 62.2139 669.463V669.463Z" fill="black"/>
<path d="M-24.5137 619.987C-24.5137 619.987 33.1975 707.107 28.8538 815.039" stroke="#535461" stroke-miterlimit="10"/>
<path d="M76.9414 738.492C76.9414 738.492 24.5539 710.018 31.2376 815.113C31.2376 815.113 74.8939 813.548 90.382 777.936C93.4082 771.011 93.7905 763.216 91.4564 756.028C89.1224 748.84 84.2339 742.758 77.7165 738.931L76.9414 738.492Z" fill="#F59442"/>
<path d="M77.8045 738.668C77.8045 738.668 71.0477 793.219 31.2378 815.113" stroke="#535461" stroke-miterlimit="10"/>
<path opacity="0.05" d="M62.3163 818.301C60.8538 836.29 54.5503 892.157 35.6691 898.46H8.71484C9.57773 900.376 10.1042 901.473 10.1042 901.473H40.1883C62.7258 893.941 67.245 815.712 67.245 815.712C65.6471 816.658 64.002 817.522 62.3163 818.301V818.301Z" fill="black"/>
<path d="M707.976 692.482H402.061V870.015H707.976V692.482Z" fill="#DDE1EC"/>
<path d="M1210.41 342.069C1210.45 341.494 1210.45 340.917 1210.41 340.343C1209.88 333.206 1203.1 328.043 1196.37 325.294C1189.64 322.544 1182.13 321.199 1176.17 317.031C1166.11 309.981 1163.01 296.804 1162.1 284.753C1161.83 281.009 1161.71 277.265 1161.69 273.507C1161.68 269.748 1161.93 265.595 1162.28 261.646C1162.86 255.094 1163.83 248.308 1163.74 241.741C1164.08 235.476 1162.88 229.223 1160.23 223.533C1154.27 211.746 1140.87 205.72 1128.47 200.587C1123.7 198.612 1118.81 196.609 1113.64 196.389C1108.17 196.155 1102.84 197.925 1097.67 199.68C1089.45 202.459 1081.11 206.071 1072.61 207.958C1067.84 209.011 1062.62 208.221 1057.99 209.903C1048.89 213.237 1046.95 221.413 1047.09 230.378C1047.09 230.948 1047.09 231.504 1047.09 232.074C1046.18 231.241 1045.25 230.451 1044.3 229.69L1043.74 229.252C1042.77 228.462 1041.73 227.716 1040.63 227.014L1040.1 226.678C1037.87 225.229 1035.52 223.953 1033.1 222.86L1032.73 222.7C1031.51 222.163 1030.27 221.676 1029.01 221.237L1028.78 221.149C1026.18 220.242 1023.51 219.538 1020.8 219.043V219.043C1012.25 217.46 1003.45 217.994 995.155 220.6C986.864 223.205 979.337 227.803 973.234 233.99L963.186 244.228C917.512 233.99 915.464 273.668 915.464 273.668L915.801 273.594L915.684 273.872C916.724 278.893 918.037 283.853 919.618 288.731L566.901 648.988L531.245 759.494L551.267 752.357L642.733 719.685L970.251 385.124C994.762 402.543 1020.24 425.884 1020.24 425.884C1020.24 425.884 1004.44 434.235 1010.29 472.494C1017.45 519.294 1006.7 585.91 1006.7 585.91V628.995L1008.71 628.44C1008.47 629.902 1008.2 631.365 1007.95 633.047C1004.62 654.694 1004.2 676.69 1006.7 698.449C1012.11 744.167 1033.72 806.586 1033.72 806.586C1033.72 806.586 1041.83 828.524 1043.64 846.147C1043.93 849.627 1044.7 853.049 1045.95 856.311C1050.02 865.979 1052.16 876.346 1052.27 886.833C1052.27 905.963 1054.77 934.672 1066.16 963.965C1075.3 987.482 1078.68 1001.26 1079.69 1009.3C1073.21 1017.87 1064.74 1027.22 1058.06 1028.15C1045.45 1029.91 1021.12 1031.66 1037.34 1052.77C1037.9 1053.49 1038.53 1054.16 1039.22 1054.77C1026.91 1056.76 1013.37 1061.15 1026.53 1078.26C1042.75 1099.36 1138.25 1089.7 1138.25 1089.7C1138.25 1089.7 1138.86 1078 1138.25 1065.1C1144.95 1064.63 1149.09 1064.2 1149.09 1064.2C1149.09 1064.2 1151.79 1013.21 1140.08 1007.05C1137.91 1007.29 1135.79 1007.81 1133.76 1008.6C1132.5 1001.55 1131.54 992.791 1130.94 986.298L1135.57 985.947V909.458C1135.57 909.458 1130.16 861.986 1110.35 840.882C1107.82 838.246 1105.64 835.297 1103.87 832.107C1104.01 826.008 1104.03 817.482 1103.95 807.639C1104.74 806.308 1105.68 805.072 1106.75 803.954C1106.75 803.954 1117.56 790.791 1154.5 707.239C1176.29 657.967 1171.44 629.522 1163.79 614.458C1162.32 609.106 1158.52 593.822 1153.55 565.684C1147.25 529.633 1154.46 494.46 1154.46 494.46C1154.46 494.46 1177.86 433.796 1188.69 409.182C1191.2 403.253 1192.25 396.807 1191.73 390.389C1194.56 388.327 1195.92 384.89 1197.13 381.614L1208.23 351.999C1209.43 348.796 1210.66 345.461 1210.4 342.054L1210.41 342.069ZM1059.65 288.746C1060.86 290.627 1062.2 292.417 1063.68 294.099V294.099C1063.68 294.099 1062.02 292.373 1059.29 289.594C1059.42 289.316 1059.54 289.024 1059.65 288.746ZM1005.07 349.542L1035.63 318.332C1046.18 327.985 1057.49 337.842 1066.94 345.959C1066.04 350.118 1064.85 354.208 1063.37 358.2C1059.27 360.233 1053.86 360.891 1047.28 357.308C1036.85 351.677 1017.61 350.01 1005.07 349.542Z" fill="url(#paint2_linear)"/>
<path d="M576.832 652.454L969.929 240.952C979.22 231.239 991.985 225.612 1005.42 225.305C1018.86 224.998 1031.87 230.036 1041.59 239.314C1051.31 248.604 1056.93 261.369 1057.24 274.806C1057.55 288.242 1052.51 301.252 1043.23 310.976L650.192 722.537L542.346 762.024L576.832 652.454Z" fill="#F59442"/>
<path opacity="0.1" d="M1020.17 232.016C1029.88 241.306 1035.51 254.071 1035.81 267.508C1036.12 280.945 1031.08 293.954 1021.8 303.678L628.722 715.18L547.757 744.796L542.287 761.995L650.134 722.508L1043.27 311.151C1052.55 301.427 1057.59 288.418 1057.28 274.981C1056.98 261.545 1051.35 248.779 1041.64 239.489V239.489C1033.54 231.73 1023.09 226.888 1011.93 225.727C1014.88 227.538 1017.64 229.645 1020.17 232.016V232.016Z" fill="white"/>
<path d="M576.832 652.469L650.192 722.537L561.71 754.916L542.346 761.995L554.616 723.049L576.832 652.469Z" fill="#EFC8C4"/>
<path d="M554.616 723.034C557.301 723.556 559.862 724.583 562.163 726.061C564.825 727.977 566.755 731.297 566.024 734.485C565.304 736.471 564.278 738.331 562.982 739.999C561.66 742.229 560.859 744.729 560.639 747.312C560.418 749.895 560.785 752.494 561.709 754.916L542.287 761.995L554.616 723.034Z" fill="#727A9C"/>
</g>
</g>
<defs>
<linearGradient id="paint0_linear" x1="630.082" y1="909.941" x2="630.082" y2="1" gradientUnits="userSpaceOnUse">
<stop stop-color="#808080" stop-opacity="0.25"/>
<stop offset="0.54" stop-color="#808080" stop-opacity="0.12"/>
<stop offset="1" stop-color="#808080" stop-opacity="0.1"/>
</linearGradient>
<linearGradient id="paint1_linear" x1="-30938.3" y1="26398.9" x2="-30938.3" y2="21375.9" gradientUnits="userSpaceOnUse">
<stop stop-color="#808080" stop-opacity="0.25"/>
<stop offset="0.54" stop-color="#808080" stop-opacity="0.12"/>
<stop offset="1" stop-color="#808080" stop-opacity="0.1"/>
</linearGradient>
<linearGradient id="paint2_linear" x1="546367" y1="713806" x2="546367" y2="165423" gradientUnits="userSpaceOnUse">
<stop stop-color="#808080" stop-opacity="0.25"/>
<stop offset="0.54" stop-color="#808080" stop-opacity="0.12"/>
<stop offset="1" stop-color="#808080" stop-opacity="0.1"/>
</linearGradient>
<clipPath id="clip0">
<rect width="1440" height="900" fill="white" transform="translate(-669)"/>
</clipPath>
<clipPath id="clip1">
<rect width="1600" height="1167.29" fill="white" transform="translate(-227 1)"/>
</clipPath>
</defs>
</svg>
