<svg width="818" height="900" viewBox="0 0 818 900" fill="none" xmlns="http://www.w3.org/2000/svg">
<rect width="818" height="900" fill="#E5E5E5"/>
<g clip-path="url(#clip0)">
<rect width="1440" height="900" transform="translate(-622)" fill="white"/>
<g clip-path="url(#clip1)">
<path opacity="0.1" d="M-142.269 417.913C-117.746 508.323 -65.8239 586.476 16.2347 624.354C186.837 703.087 571.353 662.477 858.375 615.873C1006.88 591.76 1137.32 525.27 1232.13 431.574L-142.269 417.913Z" fill="#F59442"/>
<path opacity="0.1" d="M1362.89 -7.63816H1205.41C1197.92 -7.63816 1191.79 -12.9223 1191.79 -19.3792C1191.79 -25.8361 1197.9 -31.1202 1205.41 -31.1202H1232.66C1225.17 -31.1202 1219.03 -36.4043 1219.03 -42.8612C1219.03 -49.3182 1225.15 -54.5894 1232.66 -54.5894H1213.22C1205.72 -54.5894 1199.59 -59.8735 1199.59 -66.3304C1199.59 -72.7873 1205.71 -78.0714 1213.22 -78.0714H1295.41C1277.17 -85.3918 1255.9 -90.5857 1231.3 -93.3051C1007.16 -118.14 927.136 -101.721 898.866 -84.8248C863.725 -63.5476 824.637 -48.7701 783.673 -41.276C645.387 -16.6727 386.772 12.9312 152.368 -50.7616C35.8671 -82.4018 -50.7148 -28.8519 -102.623 60.4753H1390.24C1388.29 34.4929 1382.46 10.4953 1371.75 -10.4993C1369.22 -8.63161 1366.1 -7.62373 1362.89 -7.63816V-7.63816Z" fill="#F59442"/>
<path opacity="0.1" d="M-155.635 229.206C-161.677 281.788 -159.617 334.921 -149.518 386.943L1233.18 430.556C1271.27 392.903 1303.61 350.39 1329.24 304.253L-155.635 229.206ZM391.2 341.731H363.952C371.432 341.731 377.576 347.015 377.576 353.472C377.576 359.929 371.445 365.201 363.952 365.201H206.538C199.058 365.201 192.913 359.929 192.913 353.472C192.913 347.015 199.044 341.731 206.538 341.731H233.786C226.306 341.731 220.162 336.447 220.162 329.99C220.162 323.533 226.293 318.249 233.786 318.249H214.317C206.837 318.249 200.693 312.978 200.693 306.521C200.693 300.064 206.824 294.78 214.317 294.78H371.799C379.293 294.78 385.424 300.064 385.424 306.521C385.424 312.978 379.306 318.249 371.799 318.249H391.2C398.694 318.249 404.825 323.533 404.825 329.99C404.825 336.447 398.735 341.731 391.2 341.731Z" fill="#F59442"/>
<path opacity="0.1" d="M1390.31 61.2871L-119.258 92.9531C-137.651 133.666 -149.817 179.69 -155.43 227.401H1363.85C1373.74 199.484 1381.08 170.814 1385.78 141.709C1390.31 113.664 1392.12 86.5477 1390.31 61.2871ZM151.074 165.049H123.825C131.305 165.049 137.449 170.333 137.449 176.79C137.449 183.247 131.318 188.531 123.825 188.531H-33.6435C-41.1232 188.531 -47.2678 183.247 -47.2678 176.79C-47.2678 170.333 -41.1369 165.049 -33.6435 165.049H-6.39511C-13.8748 165.049 -20.0193 159.778 -20.0193 153.321C-20.0193 146.864 -13.8884 141.58 -6.39511 141.58H-25.8641C-33.3438 141.58 -39.4883 136.296 -39.4883 129.839C-39.4883 123.382 -33.3574 118.098 -25.8641 118.098H131.618C139.112 118.098 145.242 123.382 145.242 129.839C145.242 136.296 139.125 141.58 131.618 141.58H151.074C158.553 141.58 164.698 146.864 164.698 153.321C164.698 159.778 158.553 165.049 151.074 165.049Z" fill="#F59442"/>
<path opacity="0.1" d="M746.111 882.296C802.718 882.296 848.606 872.55 848.606 860.528C848.606 848.506 802.718 838.76 746.111 838.76C689.505 838.76 643.616 848.506 643.616 860.528C643.616 872.55 689.505 882.296 746.111 882.296Z" fill="#F59442"/>
<path opacity="0.1" d="M241.852 929.659C343.974 929.659 426.76 919.913 426.76 907.891C426.76 895.869 343.974 886.123 241.852 886.123C139.73 886.123 56.9438 895.869 56.9438 907.891C56.9438 919.913 139.73 929.659 241.852 929.659Z" fill="#F59442"/>
<path opacity="0.1" d="M523.777 820.691C600.617 820.691 662.908 810.945 662.908 798.923C662.908 786.901 600.617 777.155 523.777 777.155C446.938 777.155 384.647 786.901 384.647 798.923C384.647 810.945 446.938 820.691 523.777 820.691Z" fill="#F59442"/>
<path d="M627.744 281.067C624.801 262.328 606.804 218.599 606.804 218.599C606.49 217.31 606.136 216.021 605.741 214.732C592.975 173.233 575.304 169.624 575.304 169.624L512.006 156.736C512.537 157.05 513 157.457 513.369 157.935C513.035 157.964 512.703 158.011 512.374 158.076C509.476 154.84 507.559 150.92 506.829 146.735C506.707 146.116 506.598 145.446 506.516 144.815C511.062 140.623 514.608 135.56 516.916 129.965C519.224 124.37 520.24 118.374 519.897 112.377C519.554 106.38 517.859 100.522 514.926 95.1961C511.993 89.8699 507.89 85.1986 502.892 81.4956C502.224 81.0058 501.529 80.529 500.862 80.0779C503.845 77.075 503.941 72.8992 501.706 68.7235C496.72 58.9286 485.875 52.7294 474.731 49.7007C466.215 47.3937 457.019 46.6462 448.545 49.1723C443.735 50.6158 439.348 53.0387 434.839 55.191C426.433 59.1606 417.127 62.3053 410.847 68.8395C409.375 70.3603 408.013 72.3064 408.449 74.3169C408.776 75.8119 410.029 76.9719 410.833 78.2993C412.645 81.2765 412.195 85.0269 410.956 88.2747C409.716 91.5225 407.904 94.5383 407.045 97.8634C406.187 101.189 406.514 105.107 409.157 107.491C410.425 108.416 411.743 109.277 413.108 110.068C414.554 111.234 415.824 112.583 416.882 114.077C419.389 117.256 421.887 120.448 424.375 123.652C427.889 127.9 431.029 132.413 433.763 137.146C435.629 140.626 437.073 144.338 439.566 147.457C440.297 148.367 441.133 149.197 442.06 149.931L441.324 149.661C442.407 150.704 443.705 151.526 445.136 152.078C446.567 152.63 448.103 152.899 449.648 152.87C449.785 152.87 449.907 152.87 450.03 152.87C450.599 152.858 451.143 152.647 451.556 152.277C451.556 152.715 451.556 153.153 451.556 153.566C451.706 158.167 451.678 163.064 451.338 167.665L450.752 167.382C449.883 166.973 448.909 166.807 447.944 166.903C446.979 166.999 446.062 167.352 445.302 167.923L387.031 212.155C387.031 212.155 374.361 228.548 376.132 256.851L365.914 299.291C365.914 299.291 353.148 335.3 362.971 361.012C372.794 386.724 378.489 401.429 378.489 401.429C378.489 401.429 382.413 430.646 388.312 433.031C394.211 435.415 396.759 436.704 396.759 436.704L397.931 443.689C397.931 443.689 398.326 444.372 399.021 445.519C403.312 452.582 419.212 477.507 428.449 474.839C429.612 481.608 430.114 488.463 429.948 495.319L439.09 553.379C439.09 553.379 445.466 569.167 445.071 577.441C444.676 585.715 452.509 597.508 452.509 597.508C447.75 605.75 446.354 615.358 448.586 624.509C452.319 639.974 457.033 711.219 457.033 711.219L463.845 728.489L463.654 748.737C463.095 752.039 461.64 755.147 459.431 757.758C455.016 762.295 455.343 767.54 444.703 773.739C434.062 779.939 427.318 782.284 427.318 790.494C427.305 791.639 427.196 792.781 426.991 793.909C426.01 799.941 424.103 803.214 443.667 804.967C466.651 807.029 481.979 792.852 481.979 792.852C481.979 792.852 485.357 787.053 501.27 784.707C501.27 784.707 506.72 784.436 507.006 779.887C507.115 778.315 507.088 775.312 507.006 772C506.747 765.697 506.107 758.338 505.262 757.977C504.2 757.526 502.347 751.185 501.706 748.891H506.134C506.134 748.891 510.222 719.674 506.134 700.754C502.047 681.835 505.739 668.418 505.739 668.418L504.949 618.451C504.949 618.451 499.499 612.935 503.777 603.192C508.055 593.448 503.777 545.324 503.777 545.324C503.777 545.324 505.358 528.054 509.867 524.007C514.377 519.961 510.085 498.708 509.867 497.6L517.906 523.105C517.906 523.105 521.434 573.807 528.914 582.983L531.067 605.95C531.067 605.95 546.38 627.086 543.437 638.466C540.495 649.846 546.585 691.011 546.585 691.011V733.09C546.585 733.09 539.704 749.987 549.309 756.057L553.397 755.902C552.034 757.101 550.985 758.905 549.391 760.465C547.552 762.256 546.503 769.074 545.917 774.938C545.427 779.9 545.263 784.166 545.263 784.166C545.263 784.166 549.35 790.352 557.048 790.777C564.746 791.203 590.114 809.452 590.114 809.452C590.114 809.452 615.169 809.452 621.654 808.163L622.036 808.073C624.117 807.454 625.868 806.102 626.927 804.297C628.226 802.203 628.644 799.723 628.098 797.35C627.295 793.729 624.256 789.759 617.526 786.383C600.782 778.031 598.289 770.208 598.289 770.208L587.294 754.601H588.861C588.861 754.601 587.893 738.065 599.855 719.506L599.079 637.757C599.079 637.757 603.983 609.649 595.55 594.389C595.55 594.389 594.855 578.227 600.496 573.266C606.136 568.304 592.989 518.156 592.989 518.156C592.989 518.156 590.264 491.233 587.062 466.668C600.319 478.564 614.065 435.737 616.382 428.12H616.722L616.572 427.566C616.668 427.205 616.722 427.025 616.722 427.025C616.722 427.025 613.779 417.127 615.932 419.137C618.085 421.148 623.398 413.621 623.398 413.621C623.398 413.621 622.608 372.65 631.845 352.003C641.082 331.357 627.744 281.067 627.744 281.067ZM588.234 307.14L588.302 307.024C589.664 332.04 588.043 385.422 588.043 385.422C588.043 385.422 586.218 392.266 584.269 400.321L582.907 349.606L581.544 301.83L588.234 307.14ZM419.144 289.896C419.144 289.896 425.82 368.887 419.144 380.28C417.25 383.527 415.656 389.301 414.334 395.887C412.127 390.41 407.454 377.547 409.13 370.73C411.296 361.914 404.811 338.754 404.811 338.213C404.811 337.672 404.225 325.325 408.898 315.891C413.571 306.457 410.506 302.371 410.506 302.371C410.506 302.371 414.43 286.906 419.144 289.896Z" fill="url(#paint0_linear)"/>
<path d="M435.411 467.802C429.593 491.993 406.46 455.417 401.187 446.64C400.506 445.493 400.124 444.823 400.124 444.823L402.631 433.701L415.887 428.546C417.987 429.583 419.976 430.809 421.828 432.206C429.089 437.606 439.893 449.063 435.411 467.802Z" fill="#D38884"/>
<path d="M614.883 428.223C614.883 428.223 614.883 428.404 614.733 428.765C614.733 428.919 614.624 429.125 614.556 429.344C612.281 436.897 598.793 479.415 585.768 467.609C571.517 454.721 578.438 424.924 578.438 424.924H578.533L608.507 422.024L614.447 427.798L614.883 428.223Z" fill="#D38884"/>
<path d="M597.539 637.461L598.302 718.656C586.544 737.086 587.512 753.454 587.512 753.454L548.764 754.897C539.309 748.878 546.04 732.111 546.04 732.111V690.302C546.04 690.302 540.059 649.46 542.947 638.144C545.835 626.828 530.808 605.924 530.808 605.924L528.682 583.125C521.352 574.013 517.878 523.685 517.878 523.685L510.017 498.27C510.235 499.365 514.322 520.579 510.017 524.484C505.712 528.389 504.036 545.634 504.036 545.634C504.036 545.634 508.273 593.423 504.036 603.076C499.799 612.729 505.181 618.219 505.181 618.219L505.957 667.825C505.957 667.825 502.292 681.139 506.339 699.917C510.385 718.695 506.339 747.705 506.339 747.705H464.771L464.962 727.458L458.231 710.317C458.231 710.317 453.599 639.562 449.934 624.238C447.741 615.157 449.106 605.631 453.776 597.431C453.776 597.431 446.079 585.767 446.46 577.557C446.842 569.348 440.52 553.689 440.52 553.689L431.555 496.066C431.802 484.976 430.305 473.914 427.114 463.24C421.909 446.821 414.198 425.298 414.198 425.298L422.904 426.032L466.828 429.731C466.828 429.731 573.629 422.939 578.411 428.584C579.419 430.43 580.101 432.419 580.427 434.474C585.223 454.85 591.558 518.685 591.558 518.685C591.558 518.685 604.474 568.471 598.929 573.394C593.384 578.318 594.065 594.35 594.065 594.35C602.376 609.494 597.539 637.461 597.539 637.461Z" fill="#444053"/>
<path d="M507.252 778.495C506.952 783.019 501.625 783.289 501.625 783.289C486.011 785.609 482.687 791.357 482.687 791.357C482.687 791.357 467.7 805.444 445.098 803.395C425.888 801.642 427.754 798.407 428.749 792.414C428.942 791.297 429.047 790.169 429.062 789.037C429.062 780.828 435.711 778.495 446.12 772.283C456.529 766.071 456.243 760.929 460.575 756.418C464.908 751.907 465.357 743.156 465.357 743.156C470.262 735.075 482.701 744.445 482.701 744.445C483.287 747.306 501.775 746.906 501.775 746.906C501.775 746.906 504.227 756.212 505.494 756.753C506.325 757.114 506.952 764.408 507.197 770.672C507.333 773.958 507.361 776.936 507.252 778.495Z" fill="#B07473"/>
<path opacity="0.1" d="M507.252 778.495C506.952 783.019 501.625 783.289 501.625 783.289C486.011 785.609 482.687 791.357 482.687 791.357C482.687 791.357 467.701 805.444 445.098 803.395C425.888 801.642 427.754 798.407 428.749 792.414C437.332 794.425 453.736 797.234 463.314 792.311C476.624 785.48 486.175 780.712 486.175 780.712L507.211 770.698C507.333 773.958 507.361 776.936 507.252 778.495Z" fill="black"/>
<path d="M624.924 802.841C623.899 804.631 622.18 805.976 620.128 806.591L619.76 806.681C613.398 807.97 588.806 807.97 588.806 807.97C588.806 807.97 563.942 789.785 556.421 789.373C548.901 788.96 544.854 782.8 544.854 782.8C544.854 782.8 545.004 778.572 545.481 773.649C546.067 767.824 547.089 761.058 548.901 759.279C552.225 755.993 552.988 751.546 560.468 754.356C560.468 754.356 571.149 736.544 583.738 750.309L596.763 768.997C596.763 768.997 599.215 776.729 615.714 785.12C622.308 788.47 625.251 792.414 626.082 796.01C626.607 798.344 626.194 800.779 624.924 802.841Z" fill="#B07473"/>
<path opacity="0.1" d="M624.924 802.841C623.453 804.013 621.831 805.276 620.128 806.591L619.76 806.681C613.398 807.97 588.806 807.97 588.806 807.97C588.806 807.97 563.942 789.785 556.421 789.373C548.901 788.96 544.854 782.8 544.854 782.8C544.854 782.8 545.004 778.572 545.481 773.649C553.138 775.814 564.732 779.642 567.839 783.766C572.607 790.043 587.09 798.807 587.09 798.807C587.09 798.807 614.093 796.345 626.082 796.01C626.607 798.344 626.194 800.779 624.924 802.841Z" fill="black"/>
<path d="M519.84 166.441L484.281 201.999C484.281 201.999 441.188 198.996 448.708 186.959C452.537 180.824 453.136 167.987 452.796 156.826C452.482 146.065 451.311 136.901 451.311 136.901C451.311 136.901 511.748 108.445 507.17 134.981C506.184 139.981 506.128 145.106 507.006 150.125C509.581 163.528 519.84 166.441 519.84 166.441Z" fill="#D38884"/>
<path opacity="0.1" d="M507.115 134.981C506.129 139.981 506.074 145.106 506.952 150.125C502.818 154.087 497.892 157.232 492.461 159.376C487.03 161.52 481.202 162.621 475.316 162.613C467.142 162.613 458.3 156.259 451.692 152.586C451.379 141.812 451.311 136.901 451.311 136.901C451.311 136.901 511.748 108.445 507.115 134.981Z" fill="black"/>
<path d="M519.84 118.291C519.844 127.837 516.421 137.101 510.131 144.565C503.842 152.03 495.059 157.253 485.221 159.379C475.384 161.505 465.075 160.407 455.983 156.267C446.891 152.126 439.555 145.187 435.176 136.587C430.798 127.986 429.636 118.234 431.882 108.928C434.129 99.6219 439.649 91.3131 447.539 85.3626C455.43 79.412 465.222 76.1726 475.313 76.1748C485.404 76.177 495.195 79.4208 503.083 85.3748C508.308 89.3197 512.528 94.327 515.429 100.025C518.33 105.723 519.838 111.966 519.84 118.291V118.291Z" fill="#D38884"/>
<path opacity="0.1" d="M580.427 434.474C569.337 459.438 498 459.954 498 459.954V432.734L493.682 432.463C495.548 440.261 491.066 459.271 491.066 459.271C434.689 466.797 420.942 436.407 420.942 436.407L422.904 426.006L466.828 429.705C466.828 429.705 573.628 422.913 578.411 428.558C579.422 430.412 580.103 432.411 580.427 434.474V434.474Z" fill="black"/>
<path d="M498 456.667V429.448L493.682 429.19C495.548 436.923 491.066 455.997 491.066 455.997C448.64 461.655 430.356 445.854 423.912 437.683C422.753 436.276 421.758 434.755 420.942 433.147L438.163 341.512L442.25 206.652L448.422 182.989L449.852 171.635V171.506H450.002L454.389 173.284L480.643 184.02L510.467 162.716L510.903 162.42L512.388 161.35L514.854 163.219L520.985 167.871L540.644 287.975C540.644 287.975 574.705 380.447 581.081 417.771C581.34 419.266 581.544 420.658 581.708 421.96C585.918 456.036 498 456.667 498 456.667Z" fill="#F59442"/>
<path d="M483.831 189.072C485.231 189.072 486.366 187.999 486.366 186.675C486.366 185.351 485.231 184.278 483.831 184.278C482.432 184.278 481.297 185.351 481.297 186.675C481.297 187.999 482.432 189.072 483.831 189.072Z" fill="#67647E"/>
<path d="M485.003 210.956C486.403 210.956 487.537 209.883 487.537 208.559C487.537 207.235 486.403 206.162 485.003 206.162C483.604 206.162 482.469 207.235 482.469 208.559C482.469 209.883 483.604 210.956 485.003 210.956Z" fill="#67647E"/>
<path d="M487.537 246.385C488.937 246.385 490.071 245.312 490.071 243.988C490.071 242.664 488.937 241.591 487.537 241.591C486.138 241.591 485.003 242.664 485.003 243.988C485.003 245.312 486.138 246.385 487.537 246.385Z" fill="#67647E"/>
<path d="M491.72 284.547C493.119 284.547 494.254 283.474 494.254 282.15C494.254 280.826 493.119 279.753 491.72 279.753C490.32 279.753 489.186 280.826 489.186 282.15C489.186 283.474 490.32 284.547 491.72 284.547Z" fill="#67647E"/>
<path d="M494.254 320.376C495.654 320.376 496.788 319.303 496.788 317.979C496.788 316.655 495.654 315.582 494.254 315.582C492.855 315.582 491.72 316.655 491.72 317.979C491.72 319.303 492.855 320.376 494.254 320.376Z" fill="#67647E"/>
<path d="M496.788 358.538C498.188 358.538 499.322 357.464 499.322 356.14C499.322 354.816 498.188 353.743 496.788 353.743C495.388 353.743 494.254 354.816 494.254 356.14C494.254 357.464 495.388 358.538 496.788 358.538Z" fill="#67647E"/>
<path d="M495.78 396.287C497.179 396.287 498.314 395.213 498.314 393.889C498.314 392.565 497.179 391.492 495.78 391.492C494.38 391.492 493.246 392.565 493.246 393.889C493.246 395.213 494.38 396.287 495.78 396.287Z" fill="#67647E"/>
<path opacity="0.1" d="M451.542 354.839C451.542 354.839 448.708 389.933 443.504 400.14C438.299 410.347 435.983 438.985 435.983 438.985L423.899 437.696C422.74 436.289 421.744 434.768 420.928 433.159L438.149 341.525L442.237 206.664L448.422 182.989L449.853 171.635L450.016 171.57C450.691 171.269 451.43 171.118 452.177 171.129C452.923 171.14 453.657 171.313 454.321 171.635L454.894 171.918C454.721 172.382 454.558 172.859 454.403 173.349C449.689 187.307 447.932 213.031 447.932 213.031C447.932 213.031 454.744 260.086 455.452 281.969C456.161 303.853 451.542 354.839 451.542 354.839Z" fill="black"/>
<path opacity="0.1" d="M421.828 432.244C421.695 432.538 421.54 432.822 421.364 433.095C416.678 440.583 404.797 445.339 401.187 446.64C400.506 445.493 400.124 444.823 400.124 444.823L402.631 433.701L415.887 428.546C417.988 429.595 419.978 430.834 421.828 432.244V432.244Z" fill="black"/>
<path d="M389.715 253.152L378.72 259.351L368.707 301.482C368.707 301.482 356.172 337.221 365.805 362.752C375.437 388.283 381.037 402.898 381.037 402.898C381.037 402.898 384.892 431.896 390.682 434.268C396.473 436.639 398.966 437.915 398.966 437.915L400.124 444.849C400.124 444.849 415.819 439.81 421.364 430.93C426.909 422.05 417.277 399.998 417.277 399.998C417.277 399.998 408.993 381.208 411.119 372.457C413.244 363.706 406.868 340.726 406.868 340.236C406.868 339.747 406.296 327.464 410.955 318.069C415.615 308.673 412.509 304.665 412.509 304.665L409.607 277.858L389.715 253.152Z" fill="#67647E"/>
<path opacity="0.1" d="M581.34 426.587C581.34 426.587 552.225 436.974 542.974 427.875C533.723 418.776 534.677 376.078 534.677 376.078C534.677 376.078 525.821 297.293 520.222 284.354C514.622 271.414 517.497 178.027 517.497 178.027C517.497 178.027 513.737 165.951 510.453 162.794C510.246 162.591 510.012 162.413 509.758 162.265L510.889 162.497L514.84 163.296L520.971 167.949L540.631 288.053C540.631 288.053 574.691 380.525 581.067 417.848L581.34 426.587Z" fill="black"/>
<path opacity="0.1" d="M614.883 429.319H614.556C610.891 429.77 578.547 433.469 578.411 427.102C578.406 426.366 578.447 425.63 578.533 424.898L608.507 421.998L614.447 427.772C614.556 428.146 614.638 428.468 614.719 428.726L614.883 429.319Z" fill="black"/>
<path d="M583.847 210.956L605.101 221.447C605.101 221.447 622.812 264.828 625.646 283.426C625.646 283.426 638.766 333.251 629.733 353.743C620.7 374.235 621.45 414.91 621.45 414.91C621.45 414.91 616.245 422.385 614.12 420.387C611.994 418.39 614.896 428.223 614.896 428.223C614.896 428.223 578.561 432.786 578.411 426.032C578.261 419.279 586.749 387.007 586.749 387.007C586.749 387.007 589.065 310.233 585.781 298.196C582.498 286.158 583.847 210.956 583.847 210.956Z" fill="#67647E"/>
<path opacity="0.1" d="M520.426 292.731C520.426 292.731 508.464 320.44 504.608 322.27C500.753 324.101 505.385 331.382 505.385 331.382C505.385 331.382 527.17 302.577 520.426 292.731Z" fill="black"/>
<path opacity="0.1" d="M513.287 195.529C513.423 195.001 499.022 208.894 495.167 210.995C491.311 213.096 509.24 210.866 513.287 195.529Z" fill="black"/>
<path opacity="0.1" d="M473.191 290.54C473.191 290.54 451.215 303.982 454.117 309.305C457.019 314.628 473.191 290.54 473.191 290.54Z" fill="black"/>
<path opacity="0.1" d="M513.096 486.761C513.096 486.761 531.802 498.141 560.904 500.938L513.096 486.761Z" fill="black"/>
<path opacity="0.1" d="M468.177 514.122C468.177 514.122 485.521 534.743 493.436 535.271C501.352 535.8 468.177 514.122 468.177 514.122Z" fill="black"/>
<path opacity="0.1" d="M492.469 594.93C491.693 595.291 482.632 613.528 473.395 614.082C464.158 614.636 492.469 594.93 492.469 594.93Z" fill="black"/>
<path opacity="0.1" d="M572.852 634.883C572.852 634.883 590.046 631.236 593.874 642.9C593.874 642.861 592.716 639.214 572.852 634.883Z" fill="black"/>
<path opacity="0.1" d="M561.285 701.592C561.285 701.592 582.117 697.571 586.544 703.048C590.972 708.526 561.285 701.592 561.285 701.592Z" fill="black"/>
<path opacity="0.1" d="M502.36 710.923C502.36 711.103 481.161 714.944 481.924 717.496C482.687 720.048 504.54 719.687 505.317 715.666C505.456 715.171 505.489 714.654 505.416 714.147C505.342 713.639 505.162 713.151 504.887 712.709C504.612 712.268 504.247 711.883 503.813 711.576C503.379 711.27 502.886 711.048 502.36 710.923Z" fill="black"/>
<path opacity="0.1" d="M554.351 728.219C554.351 728.219 589.188 724.198 587.049 731.131C584.91 738.065 554.351 728.219 554.351 728.219Z" fill="black"/>
<path opacity="0.1" d="M371.977 322.271C372.167 322.812 394.92 325.737 397.999 332.671C397.999 332.671 375.641 322.812 372.113 322.812" fill="black"/>
<path opacity="0.1" d="M403.98 378.617C403.98 378.617 385.083 384.275 386.432 392.794C387.781 401.313 384.511 388.85 403.98 378.617Z" fill="black"/>
<path opacity="0.1" d="M395.179 422.024C395.179 422.024 402.059 413.093 408.612 414.729C415.166 416.366 395.179 422.024 395.179 422.024Z" fill="black"/>
<path opacity="0.1" d="M503.082 85.375C502.421 85.9824 501.679 86.5065 500.875 86.9344C495.426 89.9373 493.927 94.5641 491.338 99.8998C488.927 104.784 486.27 109.953 481.406 112.723C475.125 116.306 466.856 114.992 460.33 118.111C457.432 119.537 455.054 121.752 453.499 124.47C451.945 127.187 451.287 130.283 451.61 133.357C452.025 135.73 452.644 138.066 453.463 140.343C454.947 145.272 455.618 150.389 455.452 155.512C455.466 155.662 455.466 155.813 455.452 155.963C449.869 153.324 444.934 149.604 440.968 145.044C437.003 140.485 434.095 135.187 432.434 129.496C430.773 123.804 430.395 117.846 431.325 112.008C432.256 106.169 434.473 100.581 437.834 95.6059C441.195 90.6306 445.624 86.3794 450.835 83.1281C456.045 79.8768 461.919 77.6981 468.077 76.7334C474.235 75.7686 480.538 76.0394 486.578 77.5282C492.618 79.0169 498.26 81.6903 503.137 85.375H503.082Z" fill="black"/>
<path d="M501.924 72.693C497.033 62.9754 486.393 56.8149 475.453 53.8119C467.101 51.5308 458.027 50.7833 449.744 53.2964C445.016 54.7141 440.724 57.1628 436.297 59.2636C428.04 63.2073 418.967 66.3263 412.754 72.809C411.296 74.3169 410.029 76.2501 410.397 78.2477C410.71 79.7299 411.936 80.8253 412.727 82.1915C414.511 85.1557 414.089 88.8804 412.849 92.1024C411.609 95.3244 409.852 98.3145 409.007 101.627C408.162 104.939 408.489 108.818 411.078 111.177C412.236 112.221 413.721 112.878 414.975 113.754C416.391 114.912 417.633 116.247 418.667 117.724L426.024 127.235C429.48 131.45 432.56 135.929 435.234 140.626C437.059 144.08 438.476 147.766 440.929 150.846C443.381 153.926 447.196 156.401 451.256 156.066C451.57 156.073 451.882 156.011 452.166 155.883C452.45 155.756 452.698 155.567 452.891 155.331C453.042 155.03 453.112 154.698 453.095 154.365C453.275 149.26 452.617 144.161 451.147 139.247C450.327 136.971 449.707 134.634 449.294 132.262C448.981 129.188 449.643 126.096 451.196 123.38C452.749 120.665 455.123 118.449 458.014 117.015C464.553 113.896 472.823 115.211 479.09 111.641C483.968 108.857 486.624 103.689 489.022 98.7526C491.652 93.417 493.11 88.7902 498.559 85.7872C504.009 82.7843 504.636 77.8095 501.924 72.693Z" fill="#585268"/>
<path opacity="0.1" d="M481.979 761.264C481.979 761.264 488.791 769.473 487.02 774.152C485.248 778.83 481.979 761.264 481.979 761.264Z" fill="black"/>
<path opacity="0.1" d="M574.146 781.807C574.146 781.807 575.659 770.801 581.722 770.698C587.784 770.595 588.084 770.105 592.716 771.793C597.349 773.482 601.695 776.098 600.305 776.485C598.915 776.871 592.335 770.195 585.577 773.611C581.36 775.794 577.508 778.556 574.146 781.807V781.807Z" fill="black"/>
<path opacity="0.1" d="M461.651 197.823L480.725 185.18C480.725 185.18 452.823 169.586 449.498 171.777C446.174 173.968 443.885 193.686 443.885 193.686L461.651 197.823Z" fill="black"/>
<path d="M461.569 197.011L480.643 184.123C480.643 184.123 452.741 168.529 449.417 170.72C446.092 172.911 443.803 193.712 443.803 193.712L461.569 197.011Z" fill="#E1E7EF"/>
<path d="M461.569 197.011L480.643 184.123C480.643 184.123 452.741 168.529 449.417 170.72C446.092 172.911 443.803 193.712 443.803 193.712L461.569 197.011Z" fill="#F59442"/>
<path d="M452.578 170.823L452.005 170.552C451.154 170.142 450.196 169.973 449.246 170.067C448.295 170.161 447.394 170.513 446.651 171.081L389.429 214.99C389.429 214.99 376.991 231.268 378.721 259.351L412.468 304.575C412.468 304.575 416.324 289.264 420.942 292.177C420.942 292.177 427.495 370.601 420.942 381.903C414.389 393.206 411.501 435.518 411.501 435.518L433.667 437.889C433.667 437.889 435.983 409.252 441.188 399.045C446.392 388.837 449.226 353.743 449.226 353.743C449.226 353.743 453.913 302.758 453.136 280.874C452.36 258.99 445.616 211.936 445.616 211.936C445.616 211.936 447.509 184.355 452.578 170.823Z" fill="#67647E"/>
<path opacity="0.1" d="M509.581 189.833L485.807 181.507C485.807 181.507 516.08 150.137 519.867 167.536L509.581 189.833Z" fill="black"/>
<path d="M509.581 188.737L485.807 180.411C485.807 180.411 516.08 149.042 519.867 166.441L509.581 188.737Z" fill="#E1E7EF"/>
<path d="M509.581 188.737L485.807 180.411C485.807 180.411 516.08 149.042 519.867 166.441L509.581 188.737Z" fill="#F59442"/>
<path opacity="0.1" d="M508.805 162.046C509.147 161.994 509.498 162.068 509.786 162.252L508.805 162.046Z" fill="black"/>
<path d="M511.094 159.868L574.174 172.756C574.174 172.756 591.531 176.403 604.065 217.619C616.599 258.835 586.899 309.331 586.899 309.331L580.345 304.06L583.629 424.421C583.629 424.421 554.514 434.809 545.263 425.71C536.012 416.611 536.98 373.874 536.98 373.874C536.98 373.874 528.11 295.102 522.511 282.15C516.911 269.197 519.786 175.836 519.786 175.836C519.786 175.836 514.636 159.146 511.094 159.868Z" fill="#67647E"/>
<path opacity="0.1" d="M568.806 236.565C567.92 237.338 566.885 273.76 570.74 301.482C573.098 318.364 576.74 335.063 581.64 351.449L575.918 240.392C575.918 240.392 571.503 234.193 568.806 236.565Z" fill="black"/>
<path opacity="0.1" d="M561.094 205.195C562.634 206.11 569.392 221.241 566.299 227.44C563.206 233.639 561.094 205.195 561.094 205.195Z" fill="black"/>
<path opacity="0.1" d="M501.557 72.693C498.46 66.9244 493.636 62.1462 487.687 58.9543C492.11 61.9506 495.682 65.9354 498.082 70.5536C500.807 75.7088 500.003 80.8641 494.704 83.6866C489.404 86.509 487.755 91.3163 485.167 96.6519C482.755 101.537 480.098 106.705 475.221 109.54C468.954 113.123 460.684 111.795 454.144 114.914C451.255 116.353 448.883 118.572 447.33 121.289C445.777 124.006 445.114 127.099 445.425 130.174C445.844 132.542 446.468 134.874 447.291 137.146C448.775 142.076 449.446 147.192 449.28 152.316C449.293 152.65 449.218 152.982 449.062 153.282C448.874 153.519 448.629 153.709 448.347 153.837C448.064 153.965 447.754 154.026 447.441 154.017C445.806 154.135 444.167 153.846 442.686 153.179C443.758 154.185 445.036 154.972 446.442 155.493C447.848 156.014 449.352 156.257 450.861 156.208C451.106 156.242 451.357 156.221 451.593 156.148C451.829 156.075 452.044 155.951 452.22 155.786C452.397 155.621 452.531 155.42 452.612 155.198C452.693 154.976 452.718 154.739 452.686 154.506C452.863 149.384 452.196 144.266 450.711 139.337C449.88 137.063 449.256 134.726 448.844 132.352C448.531 129.278 449.193 126.186 450.746 123.471C452.299 120.755 454.673 118.539 457.564 117.105C464.104 113.986 472.373 115.301 478.641 111.731C483.518 108.947 486.175 103.779 488.573 98.8429C491.202 93.5073 492.66 88.8804 498.11 85.8775C503.559 82.8746 504.281 77.8096 501.557 72.693Z" fill="black"/>
<path d="M889.67 234.541C870.895 234.193 854.328 221.653 844.941 206.329C842.479 202.683 840.932 198.552 840.418 194.253C840.483 193.276 840.657 192.309 840.936 191.366C841.509 189.928 841.965 188.45 842.298 186.946C842.373 186.346 842.373 185.741 842.298 185.141C842.298 185.141 842.298 185.141 842.298 185.038C842.748 181.778 840.718 178.594 838.211 176.365C835.704 174.135 832.557 172.498 829.941 170.281C821.876 163.58 819.423 152.831 819.273 142.598V142.057C819.369 137.675 819.736 133.28 819.696 128.898C819.759 126.41 819.645 123.922 819.355 121.449C818.578 115.249 816.085 108.934 810.935 104.978C797.502 94.6671 774.913 105.403 761.002 95.6595C757.624 93.2752 754.885 89.7568 750.784 88.8288C747.692 88.12 744.476 89.0737 741.452 90.0274C731.206 93.2237 719.776 97.4252 715.77 106.782C713.481 112.156 714.122 118.291 712.023 123.73C710.661 127.377 708.059 130.509 706.165 133.963C704.61 136.563 703.855 139.523 703.985 142.508C703.817 144.053 704.046 145.614 704.653 147.057C705.365 148.797 706.51 150.349 707.991 151.581C707.456 152.657 706.788 153.669 706.002 154.597C703.386 157.625 699.367 159.752 696.642 162.768C691.601 168.297 691.792 175.81 694.271 182.306C696.751 188.802 701.233 194.717 704.326 201.045C705.688 203.79 706.724 206.858 705.348 209.59C704.38 211.485 702.378 212.928 700.824 214.565C698.552 216.975 697.124 219.991 696.737 223.2C666.069 229.824 666.042 253.139 666.042 253.139L649.475 292.551C649.475 292.551 646.818 299.188 643.698 307.952L624.093 304.627L637.717 326.201C635.142 334.991 633.316 343.136 633.916 347.235C633.916 347.235 627.826 374.3 638.657 379.029L662.554 389.198C663.589 389.799 664.702 390.271 665.865 390.603L666.832 391.015C667.18 391.175 667.562 391.258 667.949 391.258C668.336 391.258 668.718 391.175 669.066 391.015H669.134H669.393C669.857 391.045 670.322 390.979 670.756 390.822C671.288 390.551 671.71 390.12 671.955 389.598C671.947 389.555 671.947 389.511 671.955 389.469L679.107 387.51L685.17 394.302C687.895 396.119 690.62 397.691 693.195 399.109L683.808 487.289C683.808 487.289 682.295 604.571 677.718 631.3C676.028 641.199 676.015 647.952 676.655 652.54L676.478 652.824C677.609 660.363 680.565 661.845 680.565 661.845V661.742C680.62 661.783 680.679 661.818 680.742 661.845C682.121 658.421 683.76 655.096 685.647 651.896C685.647 652.527 685.647 653.184 685.647 653.829C685.552 663.778 685.225 677.71 684.135 686.771C682.282 702.236 688.876 753.209 688.876 753.209L691.151 799.606C691.521 807.483 689.588 815.305 685.565 822.211C680.116 831.478 673.154 844.521 672.649 850.307C672.623 850.621 672.623 850.935 672.649 851.248V851.248L660.96 864.549C660.96 864.549 656.396 871.225 666.709 873.918C672.254 875.375 681.819 873.918 689.503 872.204C692.857 871.473 695.85 869.689 697.995 867.143C700.14 864.597 701.31 861.438 701.315 858.182C703.257 851.791 706.537 845.835 710.961 840.667L712.882 851.351L725.743 854.367L727.392 825.086C728.056 823.442 728.357 821.688 728.277 819.93V819.93C730.811 799.103 722.31 800.972 722.31 800.972C722.537 801.155 722.683 801.413 722.718 801.694L722.31 800.985C717.092 791.241 719.585 775.209 719.585 775.209C719.585 775.209 726.397 728.812 728.727 716.555C730.402 707.894 729.708 679.541 729.149 663.714C729.149 663.057 729.149 662.425 729.081 661.794C749.027 661.549 773.469 660.917 790.622 659.345V661.252L787.461 770.865C787.244 777.854 785.741 784.754 783.019 791.254C783.019 791.383 782.924 791.499 782.869 791.628C779.109 800.809 776.987 810.517 776.589 820.356L775.117 855.153V856.12C772.556 857.048 768.509 859.742 768.4 867.552C768.223 878.996 789.545 875.181 789.545 875.181C810.854 875.181 811.031 854.2 811.031 854.2C811.031 854.2 811.698 834.958 812.72 822.083C813.742 809.207 809.505 812.043 809.505 812.043L809.178 848.671C809.178 848.761 809.178 848.851 809.178 848.954V816.85L809.505 812.197V812.069V811.076L812.189 773.301C812.189 773.301 831.821 710.356 834.859 698.28C837.026 689.696 836.126 663.843 835.418 649.55C835.418 648.893 835.418 648.261 835.309 647.655C841.399 647.14 846.781 647.088 848.933 647.088H849.928C849.928 647.088 848.92 545.994 846.372 507.897C843.824 469.8 839.778 434.938 829.628 424.447C823.497 418.106 814.954 398.529 809.191 384.03C821.307 388.985 833.881 392.868 846.753 395.629C878.893 401.996 874.492 375.601 874.492 375.601L871.236 325.686H871.454C871.335 312.611 870.15 299.564 867.912 286.661C866.209 276.763 863.606 266.53 859.628 258.307C863.116 257.018 866.563 255.639 869.942 254.221C878.675 250.574 888.512 245.406 889.765 236.5H889.343C889.511 235.857 889.62 235.202 889.67 234.541V234.541ZM690.443 306.715C690.511 311.87 690.306 320.814 689.979 330.699L679.775 317.811L690.007 302.113L690.443 306.715ZM831.426 352.39L814.423 347.235C817.438 342.785 820.96 338.662 824.927 334.939L826.399 333.651L825.867 333.754L826.685 333.045L827.175 332.942L826.399 333.651L827.325 333.47C828.348 337.511 830.328 341.278 833.115 344.489C839.219 350.792 831.44 352.39 831.44 352.39H831.426Z" fill="url(#paint1_linear)"/>
<path d="M728.141 816.347L726.152 852.022L713.468 849.019L710.797 834.184L728.141 816.347Z" fill="#A27772"/>
<path opacity="0.1" d="M728.141 816.347L726.152 852.022L713.468 849.019L710.797 834.184L728.141 816.347Z" fill="black"/>
<path d="M774.695 856.751L794.041 860.541L808.388 848.555V814.775L808.714 810.161V810.019V809.04L811.385 771.497C811.385 771.497 830.745 709.003 833.756 697.004C835.881 688.498 834.995 662.825 834.287 648.635C834.001 642.822 833.756 638.93 833.756 638.93L791.044 629.148L790.145 660.208L787.025 769.035C786.809 775.972 785.33 782.822 782.651 789.282L782.502 789.656C778.787 798.771 776.693 808.403 776.302 818.165L774.858 852.769V853.723L774.695 856.751Z" fill="#CC818C"/>
<path opacity="0.1" d="M774.695 856.751L794.041 860.541L808.388 848.555V845.681C808.341 846.317 808.129 846.932 807.77 847.472C807.411 848.011 806.916 848.459 806.33 848.774L806.126 848.89C799.462 852.222 791.912 853.633 784.409 852.949L776.861 852.344C776.173 852.405 775.498 852.561 774.858 852.808V853.761L774.695 856.751Z" fill="black"/>
<path d="M806.126 849.831L806.33 849.728C806.96 849.393 807.484 848.907 807.85 848.318C808.216 847.729 808.411 847.06 808.415 846.377L808.728 810.019C808.728 810.019 812.897 807.197 811.889 819.982C810.881 832.767 810.227 851.867 810.227 851.867C810.227 851.867 810.063 872.694 789.041 872.694C789.041 872.694 768.019 876.483 768.183 865.116C768.346 853.749 776.861 853.285 776.861 853.285L784.409 853.903C791.913 854.589 799.465 853.172 806.126 849.831Z" fill="#B07473"/>
<path d="M673.93 849.019C674.421 857.228 699.952 852.485 699.952 852.485L717.132 820.935C717.132 820.935 731.479 810.509 724.299 801.358C723.915 800.86 723.564 800.339 723.25 799.799C723.25 799.799 723.25 799.799 723.182 799.722C723.032 799.49 722.895 799.245 722.759 798.987C717.609 789.321 720.143 773.469 720.143 773.469C720.143 773.469 726.806 727.381 729.149 715.228C730.797 706.644 730.116 678.484 729.571 662.734C729.353 656.187 729.149 651.792 729.149 651.792L686.764 641.057C686.764 641.057 686.764 646.057 686.764 653.017C686.669 662.902 686.342 676.731 685.265 685.727C683.44 701.025 689.939 751.688 689.939 751.688L692.186 797.789C692.576 805.599 690.691 813.36 686.737 820.227C681.423 829.429 674.475 842.394 673.998 848.129C673.951 848.424 673.928 848.721 673.93 849.019V849.019Z" fill="#CC818C"/>
<path opacity="0.1" d="M673.93 849.019C674.421 857.228 699.953 852.486 699.953 852.486L717.133 820.935C717.133 820.935 731.479 810.509 724.299 801.358C723.915 800.86 723.565 800.339 723.25 799.799C723.018 804.581 717.473 816.554 717.473 816.554C717.473 816.554 703.291 843.399 698.781 849.547C694.271 855.695 674.68 848.4 673.944 848.142C673.915 848.434 673.911 848.727 673.93 849.019V849.019Z" fill="black"/>
<path d="M722.759 798.948C722.759 798.948 731.152 797.105 728.645 817.778C728.74 820.127 728.177 822.457 727.011 824.533C725.846 826.609 724.12 828.356 722.01 829.596C716.002 833.166 706.737 840.848 702.051 855.785C702.054 859.008 700.905 862.138 698.791 864.665C696.676 867.192 693.719 868.968 690.402 869.704C682.827 871.379 673.385 872.849 667.922 871.405C657.745 868.724 662.254 862.1 662.254 862.1L673.93 848.993C673.93 848.993 694.285 856.571 698.781 850.41C703.277 844.25 717.473 817.43 717.473 817.43C717.473 817.43 725.253 800.688 722.759 798.948Z" fill="#B07473"/>
<path opacity="0.1" d="M791.044 632.976L790.145 664.036C801.521 662.992 809.668 661.536 811.058 659.487C814.069 655.079 824.996 653.223 834.287 652.463C834.001 646.65 833.756 642.758 833.756 642.758L791.044 632.976Z" fill="black"/>
<path opacity="0.1" d="M686.764 656.793C687.852 654.689 689.454 652.86 691.437 651.457C695.933 649.099 695.443 666.614 695.443 666.614C695.443 666.614 710.429 666.743 729.571 666.511C729.353 659.964 729.149 655.556 729.149 655.556L686.764 644.833C686.764 644.833 686.846 649.808 686.764 656.793Z" fill="black"/>
<path d="M681.928 660.943C681.928 660.943 686.941 648.055 691.465 645.761C695.988 643.467 695.47 660.904 695.47 660.904C695.47 660.904 805.581 661.858 811.085 653.803C816.589 645.748 848.62 646.225 848.62 646.225C848.62 646.225 847.625 545.853 845.118 507.988C842.612 470.122 838.62 435.544 828.606 425.13C822.134 418.39 812.924 396.583 807.23 382.045C804.137 374.106 802.08 368.32 802.08 368.32L696.982 373.99L696.124 382.045L684.966 487.624C684.966 487.624 683.467 604.094 678.958 630.605C674.448 657.115 681.928 660.943 681.928 660.943Z" fill="#444053"/>
<g opacity="0.1">
<path opacity="0.1" d="M802.529 653.803C807.979 645.761 840.064 646.225 840.064 646.225C840.064 646.225 839.069 545.853 836.562 507.988C834.055 470.122 830.063 435.544 820.05 425.13C813.551 418.364 804.368 396.583 798.673 382.045C796.071 375.369 794.204 370.227 793.687 368.758L801.861 368.32C801.861 368.32 803.919 374.106 807.025 382.045C812.72 396.583 821.916 418.39 828.388 425.13C838.401 435.544 842.407 470.11 844.9 507.988C847.393 545.866 848.415 646.225 848.415 646.225C848.415 646.225 816.385 645.761 810.867 653.803C806.167 660.672 725.143 660.995 701.628 660.93C731.806 660.866 798.278 660.015 802.529 653.803Z" fill="black"/>
<path opacity="0.1" d="M682.908 645.761C684.938 644.691 685.947 647.655 686.451 651.251C684.631 654.37 683.051 657.609 681.723 660.943C681.723 660.943 678.821 659.461 677.636 651.921C679.298 649.228 681.137 646.689 682.908 645.761Z" fill="black"/>
</g>
<path d="M714.408 125.47C707.132 134.852 714.49 148.191 706.683 157.316C704.108 160.332 700.143 162.471 697.459 165.436C692.486 170.926 692.677 178.388 695.116 184.832C697.555 191.276 701.928 197.153 705.034 203.442C706.397 206.162 707.405 209.216 706.043 211.923C705.089 213.805 703.113 215.235 701.574 216.859C696.56 222.156 696.424 229.515 699.121 235.753C701.819 241.991 706.969 247.352 712.051 252.636C714.054 254.711 716.588 257.005 719.926 256.941C721.681 256.815 723.378 256.289 724.871 255.407C736.43 249.822 745.266 240.235 749.539 228.642C753.813 217.049 753.195 204.344 747.814 193.171C743.591 183.595 736.547 174.419 736.479 164.301C736.479 156.272 740.839 148.604 741.615 140.613C742.555 130.896 736.479 115.469 724.081 111.228C724.899 117.466 718.1 120.65 714.408 125.47Z" fill="#585268"/>
<path opacity="0.1" d="M714.408 125.47C707.132 134.852 714.49 148.191 706.683 157.316C704.108 160.332 700.143 162.471 697.459 165.436C692.486 170.926 692.677 178.388 695.116 184.832C697.555 191.276 701.928 197.153 705.034 203.442C706.397 206.162 707.405 209.216 706.043 211.923C705.089 213.805 703.113 215.235 701.574 216.859C696.56 222.156 696.424 229.515 699.121 235.753C701.819 241.991 706.969 247.352 712.051 252.636C714.054 254.711 716.588 257.005 719.926 256.941C721.681 256.815 723.378 256.289 724.871 255.407C736.43 249.822 745.266 240.235 749.539 228.642C753.813 217.049 753.195 204.344 747.814 193.171C743.591 183.595 736.547 174.419 736.479 164.301C736.479 156.272 740.839 148.604 741.615 140.613C742.555 130.896 736.479 115.469 724.081 111.228C724.899 117.466 718.1 120.65 714.408 125.47Z" fill="black"/>
<path opacity="0.1" d="M795.09 466.759C780.526 467.48 766.82 473.409 754.068 480.111C741.316 486.812 728.972 494.403 715.252 499.159" fill="black"/>
<path opacity="0.1" d="M786.044 499.224C771.637 500.523 758.21 506.702 748.237 516.623C744.694 520.167 741.643 524.136 737.95 527.539C732.299 532.757 725.314 536.5 717.677 538.403" fill="black"/>
<path opacity="0.1" d="M789.027 523.93C777.408 526.98 766.892 532.979 758.618 541.277C756.384 543.558 754.354 545.994 752.119 548.275C740.062 560.519 723.032 567.015 706.587 573.162" fill="black"/>
<path d="M787.788 181.301C788.109 192.31 789.11 203.292 790.785 214.191C792.147 221.924 794.055 228.883 796.793 231.964C804.804 240.985 757.76 253.036 757.76 253.036L729.98 232.673C729.98 232.673 751.997 213.495 741.738 194.795C731.479 176.094 787.788 181.301 787.788 181.301Z" fill="#CC818C"/>
<path opacity="0.1" d="M696.097 382.045H807.202C804.11 374.106 802.052 368.32 802.052 368.32L696.955 373.99L696.097 382.045Z" fill="black"/>
<path d="M688.944 380.151H807.734C804.396 368.848 807.734 358.396 812.489 350.354C815.822 344.718 820.013 339.576 824.927 335.094L825.745 334.385L867.217 325.699L869.451 325.235C869.451 325.235 869.792 253.899 843.089 244.104C816.385 234.309 800.377 221.073 800.377 221.073L763.687 231.796L736.656 218.908C727.978 227.737 704.953 224.27 704.953 224.27C667.254 228.368 667.254 255.201 667.254 255.201C667.254 255.201 689.271 303.802 690.947 303.802C692.623 303.802 688.944 380.151 688.944 380.151Z" fill="#F59442"/>
<path opacity="0.1" d="M729.953 334.798C729.953 334.798 705.729 329.72 697.486 320.84Z" fill="black"/>
<path opacity="0.1" d="M776.03 372.573C776.03 372.573 782.175 375.846 791.589 380.151H807.734C804.396 368.848 807.734 358.396 812.488 350.353L784.027 341.641C793.714 350.16 776.03 372.573 776.03 372.573Z" fill="black"/>
<path d="M683.93 246.643L667.254 255.162L650.905 294.303C650.905 294.303 633.889 337.221 635.551 348.588C635.551 348.588 629.556 375.421 640.224 380.151L668.017 392.059C668.508 392.264 669.055 392.32 669.581 392.218C670.107 392.116 670.586 391.862 670.953 391.492C671.32 391.121 671.555 390.651 671.627 390.148C671.7 389.645 671.604 389.133 671.355 388.683C667.391 381.581 663.031 370.472 669.993 364.363L661.982 348.588L690.933 303.763L700.606 288.298L683.93 246.643Z" fill="#F59442"/>
<path opacity="0.1" d="M721.029 325.84C722.473 331.408 727.351 340.017 743.495 343.226L761.207 356.952L780.049 365.033L787.733 368.32L790.989 346.062L783.591 342.195L774.967 337.736C774.967 337.736 755.512 304.395 724.708 318.404C723.276 319.046 722.126 320.139 721.454 321.496C720.783 322.854 720.633 324.39 721.029 325.84Z" fill="black"/>
<path d="M722.037 323.946C723.482 329.526 728.345 338.123 744.49 341.332L762.202 355.058L781.057 363.138L788.728 366.425L791.984 344.167L784.586 340.301L776.03 335.88C776.03 335.88 756.561 302.539 725.757 316.613C724.34 317.244 723.197 318.318 722.519 319.654C721.842 320.99 721.672 322.505 722.037 323.946V323.946Z" fill="#CC818C"/>
<path opacity="0.1" d="M756.752 210.17C780.522 210.17 799.791 191.942 799.791 169.457C799.791 146.971 780.522 128.743 756.752 128.743C732.982 128.743 713.713 146.971 713.713 169.457C713.713 191.942 732.982 210.17 756.752 210.17Z" fill="black"/>
<path d="M756.752 209.229C780.522 209.229 799.791 191.001 799.791 168.516C799.791 146.03 780.522 127.802 756.752 127.802C732.982 127.802 713.713 146.03 713.713 168.516C713.713 191.001 732.982 209.229 756.752 209.229Z" fill="#CC818C"/>
<path opacity="0.1" d="M783.414 255.51L770.471 231.719C770.471 231.719 789.409 224.476 790.785 216.086C792.161 207.695 808.933 225.919 805.308 231.964C801.684 238.008 783.414 255.51 783.414 255.51Z" fill="black"/>
<path d="M783.414 253.616L770.471 229.824C770.471 229.824 789.409 222.581 790.785 214.191C792.161 205.801 808.933 224.038 805.308 230.069C801.684 236.101 783.414 253.616 783.414 253.616Z" fill="#F59442"/>
<path d="M677.486 315.079L748.999 406.03C748.999 406.03 722.637 419.601 686.328 395.307L670.647 377.625L625.877 306.238L677.486 315.079Z" fill="#F6F8FB"/>
<path d="M663.412 364.53L669.925 364.363C669.925 364.363 709.707 327.838 719.476 346.32C729.244 364.801 694.693 382.071 694.693 382.071L684.189 387.432L670.497 391.299L661.736 380.176L663.412 364.53Z" fill="#CC818C"/>
<path opacity="0.1" d="M673.017 384.262C673.617 386.363 674.189 388.683 673.181 390.629C672.939 391.149 672.522 391.58 671.995 391.853C671.562 392.011 671.096 392.073 670.633 392.034C667.187 391.756 663.979 390.255 661.655 387.832C659.372 385.417 657.417 382.741 655.837 379.867C654.066 376.942 652.227 373.707 652.854 370.382C653.562 366.76 656.941 364.247 660.251 362.21C666.846 358.086 667.064 362.894 668.508 368.203C669.952 373.513 671.505 378.901 673.017 384.262Z" fill="black"/>
<path d="M672.023 384.262C672.609 386.363 673.195 388.683 672.186 390.629C671.945 391.149 671.528 391.58 671.001 391.853C670.567 392.01 670.101 392.072 669.639 392.034C666.19 391.762 662.98 390.26 660.66 387.832C658.368 385.421 656.409 382.745 654.829 379.867C653.058 376.942 651.219 373.707 651.859 370.382C652.554 366.76 655.946 364.247 659.243 362.21C665.851 358.086 666.055 362.894 667.513 368.203C668.971 373.513 670.497 378.901 672.023 384.262Z" fill="#F59442"/>
<path opacity="0.1" d="M690.947 303.763L694.271 298.44L691.369 308.326L690.947 303.763Z" fill="black"/>
<path opacity="0.1" d="M781.112 363.138L788.782 366.425L792.038 344.167L784.641 340.301C789.75 345.843 785.281 356.089 781.112 363.138Z" fill="black"/>
<path opacity="0.1" d="M811.902 337.298C811.902 337.298 787.134 338.729 776.616 332.336Z" fill="black"/>
<g opacity="0.1">
<path opacity="0.1" d="M808.824 352.248C812.157 346.608 816.348 341.463 821.262 336.976C822.441 336.276 823.665 335.648 824.927 335.094L863.538 327.593L865.773 327.129C865.773 327.129 866.113 255.794 839.423 245.999C824.452 240.614 810.418 233.137 797.788 223.818L800.717 222.968C800.717 222.968 816.726 236.217 843.429 245.999C870.132 255.781 869.778 327.129 869.778 327.129H865.773L826.262 334.282C826.262 334.282 824.559 335.842 824.042 336.293C819.087 340.988 814.837 346.304 811.412 352.093C806.184 361.276 804.994 372.038 808.101 382.045H804.014C800.717 370.742 804.123 360.29 808.824 352.248Z" fill="black"/>
<path opacity="0.1" d="M703.372 226.332C704.012 226.241 704.625 226.151 705.293 226.087C708.002 226.45 710.732 226.661 713.468 226.718C710.097 226.806 706.724 226.677 703.372 226.332V226.332Z" fill="black"/>
<path opacity="0.1" d="M760.008 233.691L735.566 221.988C736.051 221.612 736.506 221.203 736.929 220.764L762.433 232.969L760.008 233.691Z" fill="black"/>
</g>
<path d="M853.061 306.238L869.41 325.183L872.748 376.632C872.748 376.632 877.081 402.821 845.391 396.506C813.701 390.191 777.025 370.678 777.025 370.678C777.025 370.678 794.736 348.266 785.036 339.747L830.418 353.64C830.418 353.64 838.088 352.055 832.08 345.752C826.072 339.45 825.009 328.07 825.009 328.07L853.061 306.238Z" fill="#F59442"/>
<path opacity="0.1" d="M705.347 149.828C703.808 146.258 704.993 142.095 706.846 138.731C708.699 135.368 711.247 132.184 712.636 128.563C714.694 123.176 714.067 117.079 716.315 111.808C720.28 102.464 731.547 98.2887 741.642 95.0538C744.626 94.113 747.8 93.1721 750.852 93.8681C754.94 94.7831 757.596 98.2887 760.934 100.647C774.64 110.313 796.929 99.6677 810.186 109.901C815.254 113.767 817.72 120.095 818.483 126.243C819.246 132.391 818.483 138.628 818.401 144.828C818.183 155.679 820.336 167.549 828.919 174.741C831.508 176.906 834.56 178.53 837.094 180.772C839.628 183.015 841.617 186.147 841.181 189.394C840.846 190.886 840.39 192.351 839.818 193.776C838.115 199.434 840.663 205.376 843.769 210.531C853.034 225.7 869.369 238.202 887.885 238.55C886.645 247.391 876.985 252.52 868.334 256.142C857.435 260.769 845.827 265.305 833.824 264.725C821.821 264.145 809.3 256.876 807.202 245.69C806.48 241.823 806.575 237.171 803.115 235.16C800.989 233.936 798.237 234.245 795.948 233.33C792.638 232.041 791.003 228.523 789.913 225.288C787.68 218.613 786.482 211.667 786.357 204.667C786.207 196.367 787.365 187.307 782.392 180.476C777.787 174.148 769.613 170.939 764.299 165.126C759.395 159.739 754.068 153.243 746.029 152.238C734.912 150.756 711.914 165.049 705.347 149.828Z" fill="black"/>
<path d="M705.347 147.934C703.808 144.364 704.993 140.201 706.846 136.837C708.699 133.473 711.247 130.29 712.636 126.668C714.694 121.281 714.067 115.185 716.315 109.914C720.28 100.557 731.547 96.3813 741.642 93.1593C744.626 92.2184 747.801 91.2776 750.852 91.9736C754.94 92.8886 757.596 96.3942 760.934 98.7527C774.64 108.419 796.93 97.7732 810.186 108.006C815.254 111.873 817.72 118.201 818.483 124.361C819.246 130.522 818.483 136.734 818.401 142.933C818.183 153.785 820.336 165.655 828.919 172.846C831.508 175.011 834.56 176.635 837.094 178.878C839.628 181.12 841.617 184.252 841.181 187.5C840.846 188.991 840.39 190.456 839.819 191.882C838.116 197.54 840.663 203.481 843.77 208.636C853.061 223.754 869.329 236.294 887.844 236.642C886.604 245.483 876.945 250.613 868.293 254.247C857.394 258.861 845.786 263.398 833.783 262.818C821.78 262.238 809.259 254.969 807.161 243.782C806.439 239.916 806.535 235.263 803.074 233.253C800.949 232.028 798.197 232.338 795.908 231.422C792.597 230.134 790.962 226.615 789.872 223.38C787.638 216.706 786.44 209.76 786.316 202.759C786.166 194.459 787.324 185.399 782.352 178.568C777.747 172.24 769.572 169.031 764.259 163.219C759.354 157.832 754.027 151.336 745.988 150.331C734.912 148.861 711.914 163.18 705.347 147.934Z" fill="#585268"/>
<path opacity="0.1" d="M735.893 252.559L760.566 233.613C760.566 233.613 743.672 224.953 741.656 217.568C739.64 210.183 726.124 221.073 727.5 227.698C728.877 234.322 735.893 252.559 735.893 252.559Z" fill="black"/>
<path d="M736.861 249.711L761.534 230.778C761.534 230.778 744.64 222.117 742.705 214.732C740.771 207.348 727.174 218.238 728.55 224.862C729.926 231.487 736.861 249.711 736.861 249.711Z" fill="#F59442"/>
<path opacity="0.1" d="M762.501 248.486C763.585 248.486 764.463 247.655 764.463 246.63C764.463 245.605 763.585 244.775 762.501 244.775C761.418 244.775 760.539 245.605 760.539 246.63C760.539 247.655 761.418 248.486 762.501 248.486Z" fill="black"/>
<path opacity="0.1" d="M762.501 258.797C763.585 258.797 764.463 257.966 764.463 256.941C764.463 255.916 763.585 255.085 762.501 255.085C761.418 255.085 760.539 255.916 760.539 256.941C760.539 257.966 761.418 258.797 762.501 258.797Z" fill="black"/>
<path opacity="0.1" d="M762.501 269.094C763.585 269.094 764.463 268.263 764.463 267.238C764.463 266.213 763.585 265.383 762.501 265.383C761.418 265.383 760.539 266.213 760.539 267.238C760.539 268.263 761.418 269.094 762.501 269.094Z" fill="black"/>
<g opacity="0.1">
<path opacity="0.1" d="M715.307 121.616C717.255 116.551 716.833 110.867 718.659 105.764C717.813 106.892 717.113 108.112 716.574 109.398C714.312 114.721 714.953 120.817 712.882 126.153L712.746 126.462C713.755 124.925 714.612 123.302 715.307 121.616V121.616Z" fill="black"/>
<path opacity="0.1" d="M870.963 249.195C860.064 253.809 848.456 258.346 836.453 257.766C824.45 257.186 811.93 249.917 809.832 238.743C809.11 234.876 809.205 230.211 805.744 228.2C803.619 226.976 800.867 227.285 798.578 226.37C795.267 225.082 793.632 221.563 792.543 218.328C790.308 211.654 789.11 204.708 788.987 197.707C788.837 189.42 790.008 180.36 785.036 173.516C780.417 167.188 772.242 163.992 766.929 158.167C762.024 152.792 756.697 146.284 748.659 145.279C737.637 143.861 714.598 158.167 708.086 142.933C707.04 140.055 707.191 136.908 708.508 134.13C708.032 134.891 707.568 135.651 707.146 136.425C705.293 139.853 704.121 143.964 705.661 147.534C712.214 162.742 735.212 148.449 746.234 149.88C754.272 150.911 759.599 157.419 764.504 162.768C769.817 168.593 777.992 171.789 782.597 178.13C787.583 184.961 786.412 194.021 786.561 202.308C786.685 209.309 787.883 216.255 790.117 222.929C791.207 226.177 792.842 229.657 796.153 230.971C798.442 231.886 801.194 231.59 803.319 232.802C806.834 234.812 806.739 239.516 807.406 243.344C809.532 254.518 822.039 261.787 834.028 262.367C846.018 262.947 857.571 258.423 868.538 253.796C876.44 250.471 885.242 245.87 887.612 238.33C883.825 243.228 877.122 246.605 870.963 249.195Z" fill="black"/>
</g>
<path d="M139.806 920.251C139.806 920.251 170.938 928.332 185.924 917.583C200.911 906.834 207.41 910.288 207.41 910.288C207.41 910.288 243.146 908.42 246.089 900.429C249.032 892.438 232.383 863.415 232.383 863.415C231.198 860.837 229.467 857.563 228.691 857.563L228.854 845.32L234.032 794.09C245.98 765.104 234.25 727.652 234.25 727.652L232.111 718.359C230.909 713.136 231.625 707.681 234.141 702.894L255.844 661.652C257.005 658.925 258.371 656.281 259.931 653.739C261.294 651.38 263.106 648.467 265.381 644.975C266.048 643.969 266.743 642.926 267.506 641.83C270.136 637.964 273.324 633.582 277.179 628.53C286.785 615.938 291.839 600.176 294.455 588.577L295.613 592.211H295.681H295.872L296.185 592.275H296.621H296.703L297.262 592.366H297.466L304.142 672.736C304.551 704.079 316.717 721.427 316.717 721.427L315.041 790.623C317.33 807.287 312.316 829.506 310.014 838.373L304.755 849.598C302.684 850.577 300.896 852.018 299.546 853.796C298.195 855.575 297.322 857.637 297.003 859.806C295.967 868.093 286.744 885.956 286.744 885.956C283.174 890.235 275.422 901.795 275.422 901.795C275.422 901.795 271.771 912.956 274.032 917.132C276.294 921.308 295.204 920.882 295.204 920.882C316.799 925.406 333.352 914.438 332.303 906.886C331.254 899.334 335.668 897.413 335.668 897.413C344.251 894.836 343.42 889.332 343.42 889.332C345.268 877.981 342.976 866.372 336.922 856.416L335.559 859.393C335.191 853.434 336.071 847.464 338.148 841.827L337.358 842.342L337.112 842.484H337.031C338.393 831.181 350.941 810.264 350.941 810.264C373.993 772.012 365.614 720.177 365.614 720.177L362.045 704.015L361.84 697.919C361.352 683.365 362.517 668.804 365.315 654.486C366.554 648.145 367.835 640.49 368.816 632.048C370.887 614.211 377.563 595.807 380.642 588.009L381.555 587.855H381.664C382.917 587.649 384.184 587.442 385.465 587.21H385.71C385.71 587.21 386.446 583.447 387.072 577.042C387.44 572.956 387.74 567.775 387.74 561.821C387.832 543.843 384.931 525.963 379.143 508.838L379.838 507.897C379.838 507.897 381.486 505.784 384.497 502.123C390.029 495.473 398.639 485.369 409.253 473.976C428.258 453.471 422.673 432.734 422.673 432.734C422.673 432.734 408.912 385.035 402.781 356.398C399.28 340.082 392.713 328.985 387.686 322.438C388.819 317.924 389.458 313.311 389.593 308.674C390.002 300.193 389.688 291.352 385.655 283.735C381.623 276.118 373.039 270.099 364.075 271.118C362.803 271.408 361.477 271.408 360.205 271.118C359.157 270.668 358.272 269.938 357.658 269.017C352.412 262.173 352.072 252.971 353.707 244.671C355.342 236.371 358.693 228.432 360.192 220.107C361.69 211.781 361.009 202.54 355.41 195.942C348.829 188.209 337.358 186.031 328.802 180.218C322.793 176.133 318.284 170.269 311.948 166.647C305.613 163.025 299.687 164.404 292.806 165.771C281.239 168.078 270.245 169.134 259.305 173.839C248.227 178.584 238.291 185.421 230.108 193.931C227.203 196.674 224.979 199.993 223.595 203.649C220.871 212.168 226.198 221.241 225.08 230.056C224.29 236.307 220.394 241.746 217.301 247.326C214.208 252.907 211.851 259.531 214.276 265.37C218.091 274.494 230.53 276.428 239.577 281.286C240.785 281.846 241.819 282.694 242.574 283.748C244.808 287.434 240.244 291.262 237.37 294.535C235.724 296.445 234.56 298.684 233.963 301.082C230.219 302.536 226.909 304.839 224.327 307.788C221.744 310.736 219.968 314.241 219.154 317.992C216.088 330.97 220.802 347.351 224.958 358.177C220.421 382.29 226.32 391.802 230.666 395.449C235.066 399.014 237.791 404.085 238.241 409.548V409.999C238.528 414.381 239.018 418.75 239.672 423.107C239.522 422.088 239.372 421.006 239.291 420.529C235.735 426.754 228.963 442.658 225.149 469.413C224.355 475.148 223.204 480.833 221.702 486.439C218.973 496.366 217.997 506.652 218.813 516.88L219.495 525.554C218.824 525.57 218.169 525.365 217.642 524.974L222.424 533.261V547.245C222.418 553.55 221.19 559.801 218.8 565.687C218.459 566.538 218.091 567.389 217.696 568.265C216.467 570.619 215.913 573.236 216.088 575.856C205.802 590.768 182.219 674.334 182.219 674.334C169.426 701.734 183.268 719.442 183.268 719.442C183.268 719.442 189.971 795.726 191.224 799.67C192.478 803.614 195.257 850.114 195.257 850.114C195.257 851.338 195.257 852.614 195.257 853.813C194.513 853.506 193.73 853.293 192.927 853.181C181.715 852.589 178.676 869.343 178.676 869.343L155.733 890.067C155.733 890.067 145.256 888.392 129.847 899.334C114.438 910.276 139.806 920.251 139.806 920.251ZM368.898 479.363L368.83 479.131L368.203 479.479L367.944 479.621L367.821 479.698L357.249 444.398C354.419 434.934 354.152 424.948 356.472 415.361L364.647 381.491V373.346L390.628 438.843C392.29 447.671 376.854 469.053 368.898 479.363Z" fill="url(#paint2_linear)"/>
<path d="M380.301 585.909C380.301 585.909 369.81 610.048 367.14 633.208C366.173 641.559 364.919 649.112 363.693 655.375C360.971 669.515 359.847 683.889 360.341 698.254L360.546 704.273L363.952 720.215C363.952 720.215 372.126 771.42 349.551 809.143C349.551 809.143 336.172 831.736 335.763 842.433L326.703 845.745L308.392 840.886C308.392 840.886 317.234 810.896 314.36 789.875L316.008 721.569C316.008 721.569 304.114 704.479 303.706 673.548L296.716 588.667L380.301 585.909Z" fill="#FDC2CC"/>
<path d="M296.717 573.82C296.717 573.82 294.469 606.916 277.166 629.728C259.863 652.54 256.184 662.438 256.184 662.438L234.876 703.19C232.409 707.913 231.703 713.286 232.873 718.437L234.972 727.613C234.972 727.613 246.498 764.602 234.767 793.226L229.209 848.516H196.701C196.701 848.516 193.976 802.57 192.791 798.678C191.606 794.786 184.971 719.442 184.971 719.442C184.971 719.442 171.347 701.914 183.935 674.862C183.935 674.862 212.342 573.626 219.944 575.379C227.546 577.132 296.717 573.82 296.717 573.82Z" fill="#FDC2CC"/>
<g opacity="0.1">
<path opacity="0.1" d="M231.674 727.677L229.59 718.501C228.387 713.332 229.089 707.93 231.579 703.19L252.887 662.399C252.887 662.399 256.579 652.476 273.869 629.689C290.476 607.78 293.215 576.384 293.406 573.974L296.716 573.82C296.716 573.82 294.468 606.916 277.166 629.728C259.863 652.54 256.184 662.438 256.184 662.438L234.876 703.19C232.409 707.913 231.703 713.286 232.873 718.437L234.971 727.613C234.971 727.613 246.498 764.602 234.767 793.226L229.208 848.516H225.911L231.47 793.226C243.201 764.602 231.674 727.677 231.674 727.677Z" fill="black"/>
</g>
<path opacity="0.1" d="M332.521 842.472C332.93 831.774 346.309 809.182 346.309 809.182C368.952 771.42 360.709 720.254 360.709 720.254L357.222 704.298L357.017 698.28C356.523 683.915 357.647 669.541 360.369 655.401C361.581 649.138 362.835 641.585 363.802 633.234C366.377 610.937 376.2 587.739 376.922 586.038L380.301 585.909C380.301 585.909 369.81 610.048 367.14 633.208C366.173 641.559 364.919 649.112 363.693 655.375C360.971 669.515 359.848 683.889 360.341 698.254L360.546 704.273L363.952 720.215C363.952 720.215 372.126 771.42 349.551 809.143C349.551 809.143 336.172 831.736 335.763 842.433L326.703 845.745L324.796 845.242L332.521 842.472Z" fill="black"/>
<path d="M322.03 842.085C324.483 843.004 327.141 843.325 329.76 843.018C332.379 842.712 334.874 841.788 337.017 840.332C334.018 848.611 333.593 857.53 335.791 866.031C339.496 880.053 301.212 854.741 301.212 854.741L309.387 837.072C309.387 837.072 312.561 842.665 322.03 842.085Z" fill="#D39999"/>
<path opacity="0.1" d="M324.878 842.871C326.983 843.273 329.155 843.252 331.251 842.808C333.347 842.364 335.321 841.507 337.044 840.293C334.046 848.572 333.62 857.491 335.818 865.992C339.524 880.014 301.24 854.702 301.24 854.702L309.414 837.033C309.414 837.033 311.785 841.337 318.747 842.008C320.859 842.24 322.875 842.51 324.878 842.871Z" fill="black"/>
<path d="M235.176 514.56H251.171V428.713L239.168 426.677L235.176 514.56Z" fill="#FDC2CC"/>
<path opacity="0.05" d="M235.176 514.56H251.171V428.713L239.168 426.677L235.176 514.56Z" fill="black"/>
<path d="M312.97 848.709C312.97 848.709 323.052 848.116 327.575 856.687L333.134 860.773L335.859 854.741C341.773 864.599 343.991 876.057 342.153 887.258C342.153 887.258 342.971 892.696 334.537 895.235C334.537 895.235 330.218 897.181 331.24 904.579C332.262 911.977 316.022 922.88 294.823 918.395C294.823 918.395 276.294 918.795 274.032 914.696C271.771 910.598 275.476 899.707 275.476 899.707C275.476 899.707 283.092 888.289 286.58 884.074C286.58 884.074 295.64 866.418 296.676 858.298C297.711 850.179 307.616 844.224 312.97 848.709Z" fill="#7E5659"/>
<path d="M229.522 855.914L229.685 843.812C229.685 843.812 211.279 848.825 196.374 843.155C196.374 843.155 197.628 855.321 195.557 856.983C193.486 858.646 202.45 874.305 202.45 874.305L212.464 884.229L229.685 878.3L234.358 864.381C234.358 864.381 230.748 855.914 229.522 855.914Z" fill="#D39999"/>
<path opacity="0.1" d="M229.522 855.914L229.685 843.812C229.685 843.812 211.279 848.825 196.374 843.155C196.374 843.155 197.628 855.321 195.557 856.983C193.486 858.646 202.45 874.305 202.45 874.305L212.464 884.229L229.685 878.3L234.358 864.381C234.358 864.381 230.748 855.914 229.522 855.914Z" fill="black"/>
<path d="M194.426 851.532C194.426 851.532 204.208 852.601 202.968 864.42C201.728 876.238 203.486 864.42 203.486 864.42C203.486 864.42 213.881 868.402 217.587 873.957C221.293 879.512 227.982 868.995 228.486 865.979C228.99 862.963 233.159 861.713 233.159 861.713C233.159 861.713 249.509 890.389 246.62 898.277C243.732 906.164 208.636 907.981 208.636 907.981C208.636 907.981 202.246 904.579 187.532 915.186C172.818 925.793 142.259 917.763 142.259 917.763C142.259 917.763 117.354 907.93 132.49 897.143C147.627 886.355 157.899 887.992 157.899 887.992L180.434 867.449C180.434 867.449 183.417 850.939 194.426 851.532Z" fill="#7E5659"/>
<path d="M311.254 173.607C317.48 177.177 321.908 182.976 327.807 187.01C336.199 192.745 347.467 194.885 353.925 202.54C359.374 209.062 360.083 218.174 358.611 226.396C357.14 234.619 353.843 242.468 352.249 250.664C350.655 258.861 350.982 267.947 356.132 274.701C356.73 275.609 357.597 276.33 358.625 276.776C359.874 277.058 361.177 277.058 362.426 276.776C371.227 275.77 379.674 281.725 383.625 289.238C387.576 296.752 387.89 305.49 387.481 313.867C387.14 320.737 386.323 327.748 383.135 333.934C377.685 344.451 366.35 350.946 355.164 355.921C347.894 359.155 340.439 362.003 332.834 364.453C327.603 366.129 322.085 367.636 316.649 366.76C307.343 365.239 300.749 357.236 291.921 354.104C284.686 351.526 276.662 352.454 268.964 353.099C262.397 353.64 254.89 353.627 250.367 349.091C244.563 343.265 247.179 333.87 250.149 326.369C247.003 326.18 243.974 325.173 241.395 323.458C238.817 321.743 236.79 319.387 235.538 316.651C234.286 313.914 233.858 310.904 234.302 307.952C234.745 305 236.043 302.221 238.051 299.923C240.857 296.688 245.34 292.911 243.146 289.264C242.409 288.224 241.394 287.388 240.203 286.841C231.334 282.047 219.113 280.127 215.38 271.131C212.982 265.344 215.298 258.797 218.336 253.294C221.375 247.79 225.148 242.403 225.98 236.243C227.069 227.53 221.892 218.573 224.522 210.17C225.881 206.561 228.062 203.279 230.912 200.556C238.92 192.169 248.657 185.42 259.522 180.721C270.272 176.068 281.049 175.024 292.411 172.756C299.223 171.39 304.864 169.946 311.254 173.607Z" fill="#865A61"/>
<path d="M251.157 303.351C251.157 303.351 225.094 302.062 220.162 323.082C215.23 344.103 230.857 374.209 230.857 374.209L251.157 303.351Z" fill="#FDC2CC"/>
<path opacity="0.05" d="M251.157 303.351C251.157 303.351 225.094 302.062 220.162 323.082C215.23 344.103 230.857 374.209 230.857 374.209L251.157 303.351Z" fill="black"/>
<path d="M234.522 365.909L244.4 373.307L290.49 375.253L319.265 356.566L348.529 309.06C330.641 304.743 323.406 293.053 320.709 282.124C318.993 274.728 318.798 267.088 320.137 259.622C320.137 259.622 273.215 236.642 278.978 272.51C279.768 276.912 279.915 281.396 279.414 285.836C276.689 306.843 255.135 302.887 255.135 302.887L246.866 314.95L237.397 344.593L234.522 365.909Z" fill="#FDC2CC"/>
<path opacity="0.1" d="M279.019 272.458C279.809 276.86 279.956 281.344 279.455 285.784C286.075 288.645 293.372 289.813 300.619 289.17C307.865 288.528 314.807 286.099 320.75 282.124C319.033 274.728 318.839 267.088 320.177 259.622C320.177 259.622 273.256 236.642 279.019 272.458Z" fill="black"/>
<path d="M296.744 287.782C319.701 287.782 338.311 270.177 338.311 248.461C338.311 226.744 319.701 209.139 296.744 209.139C273.787 209.139 255.176 226.744 255.176 248.461C255.176 270.177 273.787 287.782 296.744 287.782Z" fill="#FDC2CC"/>
<path d="M267.343 358.409C268.351 358.409 269.345 358.55 270.34 358.641C275.79 359.156 298.556 360.316 311.526 345.662C326.036 329.269 345.355 309.021 346.145 308.197L365.805 313.816C365.805 313.816 350.246 308.583 339.919 335.958C337.653 341.699 337.414 347.981 339.239 353.862C341.064 359.742 344.854 364.905 350.042 368.577C353.861 371.195 358.258 372.957 362.903 373.732C362.909 373.742 362.912 373.753 362.912 373.765C362.912 373.776 362.909 373.787 362.903 373.797V385.809L354.864 419.318C352.581 428.786 352.843 438.646 355.627 447.994L367.889 488.99C366.036 490.202 289.959 539.151 239.14 505.345C239.331 503.876 245.612 455.765 241.252 432.219C240.133 426.198 239.373 420.122 238.977 414.021C238.977 413.866 238.977 413.724 238.977 413.57C238.527 408.182 235.849 403.181 231.524 399.65C226.947 395.784 220.748 385.474 226.879 358.228C228.428 351.481 230.71 344.903 233.691 338.6L250.735 302.165L266.443 302.461V302.565C265.081 304.163 246.865 325.686 244.89 339.553C242.955 352.738 240.571 356.785 267.343 358.409Z" fill="#F59442"/>
<path d="M379.034 320.221C379.034 320.221 394.402 332.684 400.438 360.973C406.473 389.263 419.92 436.252 419.92 436.252C419.92 436.252 425.37 456.757 406.746 477.005C388.121 497.252 375.737 513.091 375.737 513.091L363.475 530.181C361.384 533.094 358.248 535.191 354.647 536.083C349.061 537.475 340.478 538.481 333.039 534.627C330.331 533.196 328.278 530.869 327.272 528.093C326.266 525.318 326.379 522.288 327.589 519.587L330.314 513.62C330.314 513.62 305.068 528.673 302.875 520.36C300.681 512.047 332.235 503.747 332.235 503.747C332.235 503.747 358.298 499.597 363.571 487.921C363.571 487.921 391.555 453.909 389.361 442.233L362.331 373.707C362.331 373.707 328.529 369.479 340.055 333.56C351.581 297.641 379.034 320.221 379.034 320.221Z" fill="#FDC2CC"/>
<path d="M217.41 578.756C217.41 578.756 279.155 590.432 293.705 588.873L295.272 593.809C295.272 593.809 318.706 598.771 371.69 590.819C375.151 590.304 378.743 589.724 382.467 589.079L383.707 588.873C383.707 588.873 384.429 585.161 385.001 578.833C386.268 564.463 386.718 536.638 376.023 508.155L367.113 482.198C367.113 482.198 312.044 513.426 275.585 510.552C272.329 510.294 269.1 510.05 265.844 509.946C258.364 509.676 246.77 509.946 239.236 504.237L223.432 506.815V549.345C223.426 555.567 222.216 561.734 219.862 567.543C219.522 568.394 219.167 569.232 218.772 570.121C217.322 572.778 216.843 575.814 217.41 578.756Z" fill="#65617D"/>
<path opacity="0.1" d="M295.259 580.573V593.809C295.259 593.809 322.235 599.519 383.693 588.873C383.693 588.873 384.416 585.161 384.988 578.833C366.132 581.694 314.128 588.577 295.259 580.573Z" fill="black"/>
<path opacity="0.1" d="M217.41 578.756C217.41 578.756 279.155 590.432 293.706 588.873L295.272 593.809V580.573C288.242 583.331 238.051 571.886 219.862 567.595C219.522 568.445 219.167 569.283 218.772 570.172C217.334 572.814 216.855 575.831 217.41 578.756V578.756Z" fill="black"/>
<path d="M367.099 563.999L371.677 590.858C375.137 590.342 378.73 589.762 382.454 589.118C381.023 581.269 377.903 563.342 378.761 560.365L372.998 555.699L367.099 563.999Z" fill="#65617D"/>
<path opacity="0.1" d="M367.74 563.419L372.317 590.291C375.778 589.767 379.37 589.187 383.094 588.551C381.663 580.702 378.544 562.775 379.402 559.797L373.639 555.119L367.74 563.419Z" fill="black"/>
<g opacity="0.05">
<path opacity="0.05" d="M272.275 510.539C269.032 510.282 265.789 510.037 262.533 509.934C255.258 509.676 244.154 509.934 236.579 504.662L239.222 504.224C246.797 509.908 258.296 509.663 265.83 509.934C269.087 510.037 272.315 510.282 275.572 510.539C276.634 510.63 277.724 510.681 278.828 510.707C276.642 510.762 274.454 510.706 272.275 510.539V510.539Z" fill="black"/>
<path opacity="0.05" d="M368.38 590.819C371.84 590.304 375.433 589.728 379.157 589.092L380.41 588.873C380.41 588.873 381.132 585.161 381.691 578.833C382.971 564.463 383.421 536.638 372.712 508.155L364.32 483.668C366.105 482.714 367.045 482.16 367.045 482.16L375.955 508.116C386.65 536.599 386.2 564.424 384.933 578.794C384.361 585.123 383.639 588.834 383.639 588.834L382.399 589.053C378.684 589.689 375.092 590.265 371.622 590.78C346.867 594.492 328.584 595.394 316.104 595.291C333.623 595.04 351.097 593.545 368.38 590.819V590.819Z" fill="black"/>
<path opacity="0.05" d="M290.381 588.873V589.015H288.61C289.282 588.972 289.872 588.924 290.381 588.873Z" fill="black"/>
</g>
<path d="M374.77 569.013C376.056 569.013 377.099 566.982 377.099 564.476C377.099 561.971 376.056 559.939 374.77 559.939C373.483 559.939 372.44 561.971 372.44 564.476C372.44 566.982 373.483 569.013 374.77 569.013Z" fill="#D39999"/>
<path d="M226.075 472.61C229.835 446.189 236.47 430.491 239.972 424.344C240.108 425.182 240.462 427.901 240.626 428.739C241.334 432.605 240.707 437.477 240.925 442.387L237.438 502.136L242.111 520.824C246.498 535.62 230.244 523.93 230.244 523.93C226.879 530.941 220.707 530.168 220.707 530.168L219.862 519.445C219.062 509.343 220.02 499.186 222.696 489.377C224.174 483.856 225.302 478.257 226.075 472.61V472.61Z" fill="#FDC2CC"/>
<path opacity="0.05" d="M226.075 472.61C229.835 446.189 236.47 430.491 239.972 424.344C240.108 425.182 240.462 427.901 240.626 428.739C241.334 432.605 240.707 437.477 240.925 442.387L237.438 502.136L242.111 520.824C246.498 535.62 230.244 523.93 230.244 523.93C226.879 530.941 220.707 530.168 220.707 530.168L219.862 519.445C219.062 509.343 220.02 499.186 222.696 489.377C224.174 483.856 225.302 478.257 226.075 472.61V472.61Z" fill="black"/>
<path d="M382.454 504.843C379.497 508.464 377.876 510.539 377.876 510.539L365.614 527.616C363.528 530.533 360.389 532.632 356.786 533.519C351.2 534.911 342.616 535.929 335.178 532.062C332.469 530.635 330.414 528.311 329.408 525.537C328.402 522.763 328.516 519.734 329.728 517.035L332.453 511.055C332.453 511.055 307.207 526.108 305.014 517.808C302.82 509.508 334.374 501.195 334.374 501.195C334.374 501.195 360.437 497.045 365.709 485.356C365.709 485.356 367.985 482.598 371.159 478.371" fill="#FDC2CC"/>
<path d="M367.099 533.467C367.099 533.467 337.248 530.722 327.793 514.573L323.461 527.912C323.461 527.912 354.796 548.379 361.949 545.724L367.099 533.467Z" fill="#65617D"/>
<path opacity="0.1" d="M366.036 533.338C366.036 533.338 336.199 530.593 326.73 514.432L322.412 527.732C322.412 527.732 353.747 548.198 360.886 545.543L366.036 533.338Z" fill="black"/>
<path d="M231.225 525.928C231.225 525.928 220.775 529.433 218.718 527.487L223.418 535.671L232.301 529.227L231.225 525.928Z" fill="#65617D"/>
<path opacity="0.1" d="M231.225 525.928C231.225 525.928 220.775 529.433 218.718 527.487L223.418 535.671L232.301 529.227L231.225 525.928Z" fill="black"/>
<path opacity="0.1" d="M295.259 580.573V563.496L290.967 580.986L295.259 580.573Z" fill="black"/>
<path opacity="0.1" d="M337.589 227.698C335.069 231.049 330.695 232.75 326.39 233.278C322.085 233.807 317.725 233.356 313.379 233.278C306.567 233.175 299.319 234.168 293.746 237.957C290.19 240.367 287.52 243.756 284.741 246.978C276.321 256.709 264.631 265.821 251.361 264.803C250.206 264.803 249.062 264.584 247.997 264.159C246.932 263.734 245.969 263.111 245.162 262.328C244.081 260.74 243.531 258.881 243.582 256.992C243.011 248.971 243.281 240.915 244.386 232.943C244.918 228.01 246.212 223.177 248.228 218.599C250.6 214.01 253.717 209.801 257.465 206.123C261.998 201.148 267.462 197.007 273.582 193.905C279.767 190.803 286.932 189.928 293.746 191.444C301.689 193.493 307.875 199.37 315.45 202.399C324.101 205.84 347.071 215.029 337.589 227.698Z" fill="black"/>
<path d="M337.589 226.138C335.069 229.489 330.695 231.19 326.39 231.719C322.085 232.247 317.725 231.796 313.379 231.719C306.567 231.603 299.319 232.595 293.746 236.384C290.19 238.794 287.52 242.184 284.741 245.406C276.321 255.137 264.631 264.248 251.361 263.23C250.205 263.233 249.06 263.016 247.995 262.59C246.93 262.165 245.967 261.541 245.162 260.756C244.079 259.169 243.528 257.309 243.582 255.42C243.011 247.398 243.281 239.343 244.386 231.371C244.918 226.437 246.212 221.604 248.228 217.026C250.596 212.439 253.714 208.234 257.465 204.564C261.994 199.581 267.458 195.435 273.582 192.333C279.767 189.23 286.932 188.355 293.746 189.871C301.689 191.921 307.875 197.797 315.45 200.826C324.101 204.28 347.071 213.444 337.589 226.138Z" fill="#865A61"/>
<path d="M239.236 504.211L239.127 508.915L238.01 504.418L239.236 504.211Z" fill="#FDC2CC"/>
<path opacity="0.05" d="M239.236 504.211L239.127 508.915L238.01 504.418L239.236 504.211Z" fill="black"/>
<g opacity="0.05">
<path opacity="0.05" d="M344.306 331.099C332.766 367.018 366.404 371.232 366.404 371.232L393.435 439.758C395.628 451.435 367.631 485.446 367.631 485.446C365.682 489.802 360.818 493.115 355.505 495.563C358.61 493.774 361.106 491.18 362.699 488.088C362.699 488.088 390.683 454.09 388.489 442.413L361.459 373.874C361.459 373.874 327.834 369.66 339.36 333.741C343.216 321.742 348.897 316.277 354.647 314.318C350.682 317.334 347.044 322.554 344.306 331.099Z" fill="black"/>
</g>
<g opacity="0.1">
<path opacity="0.1" d="M344.878 363.731C346.458 365.581 348.291 367.223 350.328 368.616C354.144 371.238 358.543 373.002 363.189 373.771C363.189 373.771 363.189 373.771 363.189 373.836V375.124C358.985 374.282 355.012 372.618 351.527 370.24C348.936 368.443 346.687 366.242 344.878 363.731V363.731Z" fill="black"/>
<path opacity="0.1" d="M240.353 415.116C240.353 415.258 240.353 415.412 240.353 415.567C240.778 421.691 241.56 427.788 242.697 433.83C246.784 456.049 241.429 500.164 240.667 506.261C240.231 505.99 239.795 505.732 239.304 505.436C239.508 503.966 245.789 455.855 241.429 432.322C240.312 426.301 239.552 420.225 239.154 414.124C239.154 413.969 239.154 413.814 239.154 413.673C238.884 410.136 237.618 406.732 235.489 403.813C238.313 407.011 240.013 410.962 240.353 415.116V415.116Z" fill="black"/>
<path opacity="0.1" d="M265.435 303.918L252.111 303.673C252.1 303.667 252.089 303.664 252.077 303.664C252.065 303.664 252.053 303.667 252.043 303.673L235.012 340.095C232.034 346.398 229.751 352.976 228.2 359.723C223.241 381.762 226.361 392.742 230.149 398.168C225.884 393.413 221.484 382.574 226.974 358.215C228.495 351.464 230.755 344.882 233.718 338.574L250.871 302.152L266.58 302.449V302.539C266.457 302.693 266.035 303.183 265.435 303.918Z" fill="black"/>
<path opacity="0.1" d="M365.846 313.803L366.076 313.867L365.846 313.803Z" fill="black"/>
<path opacity="0.1" d="M360.955 313.597L347.603 309.795H347.535C346.745 310.62 327.439 330.867 312.929 347.26C299.959 361.914 277.22 360.767 271.743 360.252C270.749 360.148 269.741 360.071 268.746 360.007C253.855 359.105 247.996 357.429 246.034 353.872C248.827 356.45 254.972 357.738 267.506 358.46C268.514 358.46 269.509 358.602 270.504 358.692C275.953 359.208 298.719 360.355 311.69 345.714C326.199 329.307 345.518 309.06 346.309 308.235L365.737 313.803C364.173 313.435 362.547 313.365 360.955 313.597V313.597Z" fill="black"/>
</g>
<path opacity="0.1" d="M202.873 870.258C202.873 870.258 184.071 875.117 180.434 867.487Z" fill="black"/>
<path opacity="0.1" d="M322.235 866.611C322.235 866.611 300.436 871.934 295.395 863.698Z" fill="black"/>
<path d="M636.572 855.076C636.886 852.498 637.335 849.921 637.826 847.343C639.979 836.208 636.695 825.588 635.101 821.206C634.597 819.853 634.229 819.093 634.229 819.093C625.55 816.85 591.34 841.956 578.874 851.416C574.555 851.416 569.868 851.596 564.746 851.919C562.511 852.073 560.277 852.125 558.043 852.086C556.04 852.086 553.192 852.086 549.868 852.086C538.301 843.271 502.497 816.76 493.586 819.054C493.586 819.054 493.219 819.814 492.714 821.168C491.052 825.549 487.769 836.169 489.921 847.305C490.412 849.882 490.862 852.46 491.175 855.037C491.843 860.695 494.349 871.56 503.437 878.893C505.385 892.297 512.674 909.915 518.287 920.612C518.707 922.632 519.346 924.606 520.194 926.502C517.878 934.956 515.208 945.989 515.971 949.7C515.971 949.7 503.873 946.929 502.646 960.707C502.646 960.836 502.646 960.99 502.646 961.132C498.273 963.027 492.81 967.37 498.954 976.469C499.694 977.589 500.806 978.446 502.115 978.905C503.205 979.265 504.268 979.266 504.159 977.822L511.72 985.877C511.72 985.877 525.426 987.372 525.59 979.845L526.393 979.961C528.233 980.219 530.154 980.438 532.129 980.632L533.083 983.609C533.083 983.609 522.797 983.403 525.603 989.396C525.603 989.396 528.192 991.664 529.077 990.839C529.077 990.839 527.715 994.77 533.083 994.77C533.083 994.77 538.846 997.657 541.094 995.595C543.342 993.533 548.001 990.439 548.437 989.151C548.56 988.803 548.615 985.748 548.642 981.521H549.527C561.013 981.779 573.206 981.431 584.296 980.864H585.196C585.196 985.439 585.264 988.816 585.386 989.176C585.836 990.465 590.509 993.52 592.743 995.62C594.978 997.721 600.741 994.796 600.741 994.796C606.081 994.796 604.746 990.865 604.746 990.865C605.646 991.69 608.234 989.421 608.234 989.421C611.041 983.428 600.741 983.635 600.741 983.635L601.967 979.768L607.648 979.317L608.548 979.24C608.003 987.424 622.403 985.851 622.403 985.851L629.978 977.796C629.856 979.24 630.918 979.24 632.008 978.879C633.289 978.4 634.366 977.535 635.074 976.417C644.352 962.691 627.213 959.779 627.213 959.779C626.682 959.647 626.139 959.565 625.591 959.534C625.591 959.302 625.591 959.057 625.66 958.825C625.881 957.02 625.917 955.198 625.768 953.386C625.128 950.899 620.905 946.942 615.564 946.362C612.076 945.95 612.008 930.793 612.362 920.29C612.755 918.319 612.937 916.315 612.907 914.31C612.976 911.07 612.516 907.841 611.545 904.734C618.357 893.805 623.807 882.347 624.42 878.958C633.398 871.56 635.905 860.734 636.572 855.076Z" fill="url(#paint3_linear)"/>
<path d="M553.819 857.538C553.819 857.538 522.933 892.709 508.055 882.966C507.701 882.734 507.36 882.502 507.033 882.257C497.033 875.091 494.404 863.543 493.709 857.679C493.409 855.102 492.973 852.614 492.496 850.101C490.439 839.159 493.586 828.746 495.221 824.441C495.712 823.152 496.052 822.366 496.052 822.366C506.339 819.659 553.819 857.538 553.819 857.538Z" fill="#F59442"/>
<path d="M537.225 860.785C537.225 860.785 527.497 867.229 513.777 877.823C511.641 879.478 509.363 880.961 506.965 882.257C496.965 875.091 494.336 863.543 493.641 857.679C493.341 855.102 492.905 852.614 492.428 850.101C490.371 839.159 493.518 828.746 495.153 824.441C514.391 825.704 537.225 860.785 537.225 860.785Z" fill="#F59442"/>
<path opacity="0.5" d="M537.225 860.785C537.225 860.785 527.497 867.229 513.777 877.823C511.641 879.478 509.363 880.961 506.965 882.257C496.965 875.091 494.336 863.543 493.641 857.679C493.341 855.102 492.905 852.614 492.428 850.101C490.371 839.159 493.518 828.746 495.153 824.441C514.391 825.704 537.225 860.785 537.225 860.785Z" fill="white"/>
<path opacity="0.1" d="M526.639 857.318C526.639 857.318 521.448 860.785 514.118 866.417C512.99 867.297 511.787 868.085 510.521 868.776C505.194 864.91 503.709 858.788 503.409 855.669C503.259 854.303 503.028 852.962 502.769 851.609C502.069 846.999 502.589 842.296 504.281 837.922V837.922C514.459 838.592 526.639 857.318 526.639 857.318Z" fill="black"/>
<path d="M573.833 857.538C573.833 857.538 604.719 892.709 619.597 882.966C619.937 882.734 620.292 882.502 620.619 882.257C630.619 875.091 633.248 863.543 633.943 857.679C634.243 855.102 634.679 852.614 635.142 850.101C637.213 839.159 634.052 828.746 632.417 824.441C631.927 823.152 631.573 822.366 631.573 822.366C621.313 819.659 573.833 857.538 573.833 857.538Z" fill="#F59442"/>
<path d="M590.414 860.785C590.414 860.785 600.155 867.229 613.875 877.823C615.989 879.475 618.245 880.958 620.619 882.257C630.619 875.091 633.248 863.543 633.943 857.679C634.243 855.102 634.679 852.614 635.142 850.101C637.213 839.159 634.052 828.746 632.417 824.441C613.275 825.704 590.414 860.785 590.414 860.785Z" fill="#F59442"/>
<path opacity="0.5" d="M590.414 860.785C590.414 860.785 600.155 867.229 613.875 877.823C615.989 879.475 618.245 880.958 620.619 882.257C630.619 875.091 633.248 863.543 633.943 857.679C634.243 855.102 634.679 852.614 635.142 850.101C637.213 839.159 634.052 828.746 632.417 824.441C613.275 825.704 590.414 860.785 590.414 860.785Z" fill="white"/>
<path opacity="0.1" d="M601.082 857.293C601.082 857.293 606.245 860.747 613.52 866.314C614.64 867.193 615.839 867.978 617.104 868.66C622.403 864.858 623.807 858.736 624.174 855.63C624.324 854.341 624.556 852.936 624.815 851.596C625.525 847.017 625.033 842.343 623.384 837.986V837.986C613.193 838.682 601.082 857.293 601.082 857.293Z" fill="black"/>
<path d="M564.637 854.586C562.484 854.728 560.331 854.78 558.165 854.741C547.116 854.56 509.895 855.024 505.766 869.24C500.903 885.995 522.647 930.858 526.066 931.399C529.486 931.941 582.416 936 594.719 925.716C607.022 915.431 623.03 883.185 622.172 880.259C622.172 880.259 637.431 849.818 564.637 854.586Z" fill="#F59442"/>
<path opacity="0.1" d="M563.465 881.754C563.465 881.754 536.216 877.785 523.437 903.148C520.876 908.079 519.749 913.567 520.173 919.046C520.597 924.525 522.556 929.799 525.848 934.325C530.099 939.983 536.339 944.197 545.018 940.769C564.31 933.255 563.465 881.754 563.465 881.754Z" fill="black"/>
<path opacity="0.1" d="M562.607 880.13C562.607 880.13 535.358 876.161 522.579 901.525C520.017 906.456 518.891 911.943 519.315 917.422C519.739 922.902 521.697 928.175 524.99 932.701C529.241 938.359 535.481 942.573 544.159 939.145C563.451 931.631 562.607 880.13 562.607 880.13Z" fill="black"/>
<path d="M562.607 880.942C562.607 880.942 535.358 876.973 522.579 902.337C520.017 907.268 518.891 912.755 519.315 918.234C519.739 923.713 521.697 928.987 524.99 933.513C529.241 939.171 535.481 943.385 544.159 939.957C563.451 932.443 562.607 880.942 562.607 880.942Z" fill="#F59442"/>
<path opacity="0.5" d="M562.607 880.942C562.607 880.942 535.358 876.973 522.579 902.337C520.017 907.268 518.891 912.755 519.315 918.234C519.739 923.713 521.697 928.987 524.99 933.513C529.241 939.171 535.481 943.385 544.159 939.957C563.451 932.443 562.607 880.942 562.607 880.942Z" fill="white"/>
<path opacity="0.1" d="M566.953 881.754C566.953 881.754 594.201 877.785 606.981 903.148C609.542 908.079 610.668 913.567 610.245 919.046C609.821 924.525 607.862 929.799 604.569 934.325C600.332 939.983 594.079 944.197 585.4 940.769C566.054 933.255 566.953 881.754 566.953 881.754Z" fill="black"/>
<path opacity="0.1" d="M567.757 880.13C567.757 880.13 595.005 876.161 607.785 901.525C610.346 906.456 611.472 911.943 611.049 917.422C610.625 922.902 608.666 928.175 605.373 932.701C601.136 938.359 594.883 942.573 586.204 939.145C566.953 931.631 567.757 880.13 567.757 880.13Z" fill="black"/>
<path d="M567.757 880.942C567.757 880.942 595.005 876.973 607.785 902.337C610.346 907.268 611.472 912.755 611.049 918.234C610.625 923.713 608.666 928.987 605.373 933.513C601.136 939.171 594.883 943.385 586.204 939.957C566.953 932.443 567.757 880.942 567.757 880.942Z" fill="#F59442"/>
<path opacity="0.5" d="M567.757 880.942C567.757 880.942 595.005 876.973 607.785 902.337C610.346 907.268 611.472 912.755 611.049 918.234C610.625 923.713 608.666 928.987 605.373 933.513C601.136 939.171 594.883 943.385 586.204 939.957C566.953 932.443 567.757 880.942 567.757 880.942Z" fill="white"/>
<path opacity="0.1" d="M562.62 876.883C562.62 876.883 542.443 876.277 541.802 891.059C541.162 905.842 573.329 899.578 573.329 899.578C573.329 899.578 586.844 897.864 584.487 888.881C582.13 879.898 577.212 877.695 562.62 876.883Z" fill="black"/>
<path opacity="0.1" d="M562.62 875.259C562.62 875.259 542.443 874.653 541.802 889.436C541.162 904.218 573.329 897.955 573.329 897.955C573.329 897.955 586.844 896.24 584.487 887.258C582.13 878.275 577.212 876.071 562.62 875.259Z" fill="black"/>
<path d="M562.62 876.071C562.62 876.071 542.443 875.465 541.802 890.248C541.162 905.03 573.329 898.767 573.329 898.767C573.329 898.767 586.844 897.052 584.487 888.069C582.13 879.086 577.212 876.883 562.62 876.071Z" fill="#3F2B3B"/>
<path opacity="0.1" d="M103.402 822.727C123.666 822.727 140.092 820.101 140.092 816.863C140.092 813.624 123.666 810.999 103.402 810.999C83.1391 810.999 66.7124 813.624 66.7124 816.863C66.7124 820.101 83.1391 822.727 103.402 822.727Z" fill="#F59442"/>
</g>
</g>
<defs>
<linearGradient id="paint0_linear" x1="497.183" y1="809.452" x2="497.183" y2="47.6515" gradientUnits="userSpaceOnUse">
<stop stop-color="#808080" stop-opacity="0.25"/>
<stop offset="0.54" stop-color="#808080" stop-opacity="0.12"/>
<stop offset="1" stop-color="#808080" stop-opacity="0.1"/>
</linearGradient>
<linearGradient id="paint1_linear" x1="187495" y1="615631" x2="187495" y2="134796" gradientUnits="userSpaceOnUse">
<stop stop-color="#808080" stop-opacity="0.25"/>
<stop offset="0.54" stop-color="#808080" stop-opacity="0.12"/>
<stop offset="1" stop-color="#808080" stop-opacity="0.1"/>
</linearGradient>
<linearGradient id="paint2_linear" x1="-142646" y1="621405" x2="-142646" y2="174605" gradientUnits="userSpaceOnUse">
<stop stop-color="#808080" stop-opacity="0.25"/>
<stop offset="0.54" stop-color="#808080" stop-opacity="0.12"/>
<stop offset="1" stop-color="#808080" stop-opacity="0.1"/>
</linearGradient>
<linearGradient id="paint3_linear" x1="84363.7" y1="156180" x2="84363.7" y2="131757" gradientUnits="userSpaceOnUse">
<stop stop-color="#808080" stop-opacity="0.25"/>
<stop offset="0.54" stop-color="#808080" stop-opacity="0.12"/>
<stop offset="1" stop-color="#808080" stop-opacity="0.1"/>
</linearGradient>
<clipPath id="clip0">
<rect width="1440" height="900" fill="white" transform="translate(-622)"/>
</clipPath>
<clipPath id="clip1">
<rect width="1550" height="1108" fill="white" transform="translate(-159 -106)"/>
</clipPath>
</defs>
</svg>
