<svg width="673" height="892" viewBox="0 0 673 892" fill="none" xmlns="http://www.w3.org/2000/svg">
<g clip-path="url(#clip0)">
<rect width="1440" height="900" transform="translate(-767 -8)" fill="white"/>
<rect x="-47" y="-8" width="720" height="900" fill="white"/>
<g clip-path="url(#clip1)">
<path d="M702 348.702L131.409 443.726V647.343L702 638.02V348.702Z" fill="url(#paint0_linear)"/>
<path d="M137.974 445.332L689.541 353.12V625.361L137.974 642.925V445.332Z" fill="#F59442"/>
<path d="M695.944 85.2617L299.952 198.335V315.79L695.944 230.612V85.2617Z" fill="url(#paint1_linear)"/>
<path d="M685.16 89.6558L308.7 199.431V309.206L685.16 221.388V89.6558Z" fill="white"/>
<path d="M369.977 238.752C369.977 255.071 362.098 270.232 352.468 272.597C342.838 274.962 335.293 263.884 335.293 247.839C335.293 231.794 342.938 216.72 352.468 214.081C361.998 211.442 369.977 222.434 369.977 238.752Z" stroke="#DBDBDB" stroke-width="2" stroke-miterlimit="10"/>
<path d="M641.393 164.304L402.266 227.4V213.932L641.393 149.055V164.304Z" fill="#DBDBDB"/>
<path d="M641.393 195.037L402.266 258.133V244.665L641.393 179.801V195.037Z" fill="#DBDBDB"/>
<path d="M247.411 534.357C247.411 503.425 233.55 480.247 216.772 482.55C200.33 484.816 187.238 510.781 187.238 540.593C187.238 570.405 200.33 593.657 216.772 592.512C233.612 591.342 247.411 565.301 247.411 534.357Z" fill="white"/>
<path d="M619.503 480.459L289.665 517.142V496.591L619.503 455.937V480.459Z" fill="url(#paint2_linear)"/>
<path d="M619.503 533.15L289.665 569.832V549.282L619.503 508.628V533.15Z" fill="url(#paint3_linear)"/>
<path d="M687.431 740.936L297.755 736.343V855.441L691.812 892L687.431 740.936Z" fill="url(#paint4_linear)"/>
<path d="M685.16 748.305L308.7 743.911V849.305L685.16 880.038V748.305Z" fill="white"/>
<path d="M374.358 801.93C374.358 818.211 366.478 830.858 356.849 830.186C347.219 829.513 339.687 816.07 339.687 800.087C339.687 784.105 347.331 771.458 356.861 771.819C366.391 772.18 374.358 785.648 374.358 801.93Z" stroke="#DBDBDB" stroke-width="2" stroke-miterlimit="10"/>
<path d="M641.393 805.39L410.047 794.274V780.532L641.393 789.905V805.39Z" fill="#DBDBDB"/>
<path d="M641.393 836.123L410.047 825.007V811.265L641.393 820.638V836.123Z" fill="#DBDBDB"/>
<path d="M695.944 -176L302.136 -17.7045V100.634L695.944 -31.098V-176Z" fill="url(#paint5_linear)"/>
<path d="M689.541 -169.415L308.7 -11.3438V89.6556L689.541 -37.6828V-169.415Z" fill="white"/>
<path d="M387.487 8.2238C387.487 24.4056 379.607 40.4132 369.977 43.9856C360.348 47.5581 352.803 37.5129 352.803 21.6672C352.803 5.82143 360.447 -10.1114 369.977 -13.9702C379.508 -17.8289 387.487 -7.95801 387.487 8.2238Z" stroke="#DBDBDB" stroke-width="2" stroke-miterlimit="10"/>
<path d="M650.142 -59.6402L418.746 30.6917V14.9705L650.142 -77.353V-59.6402Z" fill="#DBDBDB"/>
<path d="M152.331 847.998L140.604 839.982L121.817 768.595L125.614 764.475C125.614 764.475 125.614 741.447 120.266 726.249C123.579 724.145 125.651 722.713 125.651 722.713C114.21 712.27 114.21 673.994 114.21 673.994C114.21 673.994 109.358 644.518 99.6662 617.22L118.019 621.789L144.724 562.625V548.684L156.166 541.726C156.166 541.726 140.902 520.839 125.639 541.726C125.639 541.726 129.448 555.642 125.639 562.613C121.829 569.584 110.375 593.931 110.375 593.931H100.659L102.744 583.488H82.802C81.834 582.243 80.8537 581.085 79.8485 580.002L95.112 548.684L87.9642 543.792L114.197 513.918L118.007 451.27C133.171 446.664 136.621 432.884 137.217 424.109C137.49 420.101 133.345 417.051 129.076 418.047C96.1419 425.752 102.756 440.826 102.756 440.826L91.2899 499.902L75.5177 522.569C73.6067 512.2 66.1363 503.587 55.9731 499.33L64.5851 489.508C64.5851 489.508 45.115 484.766 26.6128 491.189C-7.5748 503.039 -7.50035 548.448 26.6128 560.36C31.4278 562.136 36.5559 562.899 41.6776 562.6V559.115C42.1616 559.115 42.6331 559.115 43.1047 559.053C42.5215 562.289 41.9754 565.949 41.69 569.559C34.0583 569.559 34.0583 607.847 45.4997 614.806L41.69 653.094V673.981C49.3217 691.408 64.5851 691.408 64.5851 691.408L76.0141 740.14C79.6376 741.796 84.3531 741.671 89.4161 740.526L91.2651 754.056C91.2651 754.056 56.9286 778.416 56.9286 813.22L55.6877 815.497L53.1189 813.22L30.2239 830.646L60.7507 865.499H91.2775C98.9092 848.073 68.3824 844.612 68.3824 844.612L68.2335 826.725L99.1698 793.216C104.419 807.22 113.776 830.497 121.506 840.517L118.019 841.152V868.997H182.858C201.931 844.513 152.331 847.998 152.331 847.998Z" fill="url(#paint6_linear)"/>
<path d="M50.9595 551.472C50.9595 551.472 43.3898 583.363 50.9595 587.919L73.6685 574.226L58.5292 545.373L50.9595 551.472Z" fill="#F6B9AD"/>
<path d="M134.697 832.949L114.644 749.127L94.6279 775.939C94.6279 775.939 111.343 829.588 121.37 836.285L134.697 832.949Z" fill="#B98B82"/>
<path d="M148.075 544.601C148.075 544.601 134.71 524.486 121.333 544.601C121.333 544.601 124.671 558.007 121.333 564.716C117.995 571.426 107.968 594.889 107.968 594.889H77.8755V611.656L114.644 621.714L138.06 564.716V551.298L148.075 544.601Z" fill="#F6B9AD"/>
<path d="M101.279 584.832L94.5906 621.714L67.8486 615.005V584.832H101.279Z" fill="#5989A1"/>
<path d="M47.7954 561.356C64.4082 561.356 77.8755 547.847 77.8755 531.183C77.8755 514.519 64.4082 501.01 47.7954 501.01C31.1826 501.01 17.7153 514.519 17.7153 531.183C17.7153 547.847 31.1826 561.356 47.7954 561.356Z" fill="#F6B9AD"/>
<path d="M41.107 527.834L67.849 494.301C67.849 494.301 50.7862 489.732 34.5797 495.919C4.63612 507.333 4.68575 551.024 34.5797 562.551C38.7581 564.26 43.2673 565 47.7708 564.716V544.601H37.7441L41.107 527.834Z" fill="#3D213C"/>
<path d="M114.644 457.419L111.306 517.764L84.5639 551.298L67.8486 541.24L91.2525 504.358L101.279 447.361C101.279 447.361 95.4841 432.835 124.348 425.416C125.216 425.187 126.126 425.167 127.003 425.358C127.881 425.549 128.701 425.945 129.396 426.514C130.092 427.083 130.643 427.809 131.006 428.633C131.369 429.457 131.532 430.355 131.483 431.254C130.95 439.706 127.934 452.975 114.644 457.419Z" fill="#F6B9AD"/>
<path d="M87.902 722.302L91.2401 749.127C91.2401 749.127 61.1228 772.59 61.1228 806.112L57.7847 812.821L67.8114 822.879L121.295 759.172C121.295 759.172 121.295 722.29 111.269 712.232L87.902 722.302Z" fill="#F6B9AD"/>
<path d="M71.0502 819.07L71.1867 836.297C71.1867 836.297 97.9287 839.646 91.2401 856.412H64.5106L37.7686 822.879L57.8219 806.112L71.0502 819.07Z" fill="#F59442"/>
<path d="M131.359 829.588L144.724 839.645C144.724 839.645 188.157 836.297 171.466 859.761H114.644V832.949L131.359 829.588Z" fill="#F59442"/>
<path d="M121.333 718.979C121.333 718.979 91.2528 742.455 77.9004 735.746L67.8737 688.806C67.8737 688.806 54.5089 688.806 47.8203 672.039V651.887L111.331 672.002C111.331 672.002 111.306 708.884 121.333 718.979Z" fill="#F59442"/>
<path d="M94.6279 551.298L67.8859 531.183C67.8859 531.183 54.5211 571.413 47.8325 571.413C41.1439 571.413 41.1439 608.295 51.1706 614.98L47.8325 651.862L111.343 671.977C111.343 671.977 101.316 604.922 81.2631 581.446L94.6279 551.298Z" fill="#76B6D7"/>
<path d="M353.982 10.5142L361.626 9.34411L369.27 16.9994L378.081 0.493896H387.487L369.27 23.4845L353.982 10.5142Z" fill="#47E6B1"/>
<path d="M190.18 536.436L202.353 534.556L214.527 546.767L228.562 520.478H243.54L214.527 557.099L190.18 536.436Z" fill="#F59442"/>
<path opacity="0.2" d="M190.18 536.436L202.353 534.556L214.527 546.767L228.562 520.478H243.54L214.527 557.099L190.18 536.436Z" fill="black"/>
</g>
</g>
<defs>
<linearGradient id="paint0_linear" x1="416.711" y1="647.343" x2="416.711" y2="348.702" gradientUnits="userSpaceOnUse">
<stop stop-color="#808080" stop-opacity="0.25"/>
<stop offset="0.54" stop-color="#808080" stop-opacity="0.12"/>
<stop offset="1" stop-color="#808080" stop-opacity="0.1"/>
</linearGradient>
<linearGradient id="paint1_linear" x1="158879" y1="91164.8" x2="158879" y2="48470.9" gradientUnits="userSpaceOnUse">
<stop stop-color="#808080" stop-opacity="0.25"/>
<stop offset="0.54" stop-color="#808080" stop-opacity="0.12"/>
<stop offset="1" stop-color="#808080" stop-opacity="0.1"/>
</linearGradient>
<linearGradient id="paint2_linear" x1="289.665" y1="486.533" x2="619.503" y2="486.533" gradientUnits="userSpaceOnUse">
<stop stop-color="#DADADA"/>
<stop offset="1" stop-color="white"/>
</linearGradient>
<linearGradient id="paint3_linear" x1="77016.7" y1="35676.2" x2="164688" y2="35676.2" gradientUnits="userSpaceOnUse">
<stop stop-color="#DADADA"/>
<stop offset="1" stop-color="white"/>
</linearGradient>
<linearGradient id="paint4_linear" x1="157101" y1="134290" x2="157101" y2="114825" gradientUnits="userSpaceOnUse">
<stop stop-color="#808080" stop-opacity="0.25"/>
<stop offset="0.54" stop-color="#808080" stop-opacity="0.12"/>
<stop offset="1" stop-color="#808080" stop-opacity="0.1"/>
</linearGradient>
<linearGradient id="paint5_linear" x1="158357" y1="61303.2" x2="158357" y2="-176" gradientUnits="userSpaceOnUse">
<stop stop-color="#808080" stop-opacity="0.25"/>
<stop offset="0.54" stop-color="#808080" stop-opacity="0.12"/>
<stop offset="1" stop-color="#808080" stop-opacity="0.1"/>
</linearGradient>
<linearGradient id="paint6_linear" x1="73108.7" y1="388588" x2="73108.7" y2="225113" gradientUnits="userSpaceOnUse">
<stop stop-color="#808080" stop-opacity="0.25"/>
<stop offset="0.54" stop-color="#808080" stop-opacity="0.12"/>
<stop offset="1" stop-color="#808080" stop-opacity="0.1"/>
</linearGradient>
<clipPath id="clip0">
<rect width="1440" height="900" fill="white" transform="translate(-767 -8)"/>
</clipPath>
<clipPath id="clip1">
<rect width="701" height="1068" fill="white" transform="translate(1 -176)"/>
</clipPath>
</defs>
</svg>
